<svg width="1550" height="252" viewBox="0 0 1550 252" fill="none" xmlns="http://www.w3.org/2000/svg">
<g clip-path="url(#clip0_6_839)">
<rect width="1550" height="252" fill="white"/>
<rect width="1550" height="252" fill="#F4F4F4" fill-opacity="0.5"/>
<path d="M749.151 211.3C749.151 206.7 750.651 202.9 753.651 199.9C756.851 196.9 760.651 195.4 765.051 195.4C769.651 195.4 773.451 196.9 776.451 199.9C779.451 202.9 780.951 206.7 780.951 211.3C780.951 215.9 779.451 219.8 776.451 223C773.451 226 769.651 227.5 765.051 227.5C760.451 227.5 756.651 226 753.651 223C750.651 219.8 749.151 215.9 749.151 211.3ZM716.451 51.1C716.451 40.7 721.751 31.3 732.351 22.9C742.951 14.3 757.251 9.99999 775.251 9.99999C793.451 9.99999 807.751 14.5 818.151 23.5C828.551 32.3 833.751 44.6 833.751 60.4C833.751 76.2 827.751 89.9 815.751 101.5C803.751 113.1 789.951 120.7 774.351 124.3L772.551 166.9C768.151 167.5 763.251 167.5 757.851 166.9L756.351 113.2C772.351 109.2 785.451 102.5 795.651 93.1C806.051 83.7 811.251 72.6 811.251 59.8C811.251 50 807.951 41.7 801.351 34.9C794.951 27.9 785.651 24.4 773.451 24.4C761.251 24.4 751.751 28.6 744.951 37C738.151 45.2 734.751 54.7 734.751 65.5C722.551 65.5 716.451 60.7 716.451 51.1Z" fill="#FEBBA2" fill-opacity="0.49"/>
<path d="M213.644 108.48C209.444 108.48 205.644 107.56 202.244 105.72C198.884 103.84 196.244 101.28 194.324 98.04C192.404 94.76 191.444 91.08 191.444 87C191.444 82.92 192.404 79.26 194.324 76.02C196.244 72.74 198.904 70.18 202.304 68.34C205.704 66.46 209.504 65.52 213.704 65.52C216.984 65.52 219.984 66.08 222.704 67.2C225.424 68.28 227.744 69.9 229.664 72.06L225.764 75.84C222.604 72.52 218.664 70.86 213.944 70.86C210.824 70.86 208.004 71.56 205.484 72.96C202.964 74.36 200.984 76.3 199.544 78.78C198.144 81.22 197.444 83.96 197.444 87C197.444 90.04 198.144 92.8 199.544 95.28C200.984 97.72 202.964 99.64 205.484 101.04C208.004 102.44 210.824 103.14 213.944 103.14C218.624 103.14 222.564 101.46 225.764 98.1L229.664 101.88C227.744 104.04 225.404 105.68 222.644 106.8C219.924 107.92 216.924 108.48 213.644 108.48ZM249.656 108.36C246.496 108.36 243.656 107.66 241.136 106.26C238.616 104.86 236.636 102.94 235.196 100.5C233.796 98.02 233.096 95.22 233.096 92.1C233.096 88.98 233.796 86.2 235.196 83.76C236.636 81.28 238.616 79.36 241.136 78C243.656 76.6 246.496 75.9 249.656 75.9C252.816 75.9 255.636 76.6 258.116 78C260.636 79.36 262.596 81.28 263.996 83.76C265.436 86.2 266.156 88.98 266.156 92.1C266.156 95.22 265.436 98.02 263.996 100.5C262.596 102.94 260.636 104.86 258.116 106.26C255.636 107.66 252.816 108.36 249.656 108.36ZM249.656 103.32C251.696 103.32 253.516 102.86 255.116 101.94C256.756 100.98 258.036 99.66 258.956 97.98C259.876 96.26 260.336 94.3 260.336 92.1C260.336 89.9 259.876 87.96 258.956 86.28C258.036 84.56 256.756 83.24 255.116 82.32C253.516 81.4 251.696 80.94 249.656 80.94C247.616 80.94 245.776 81.4 244.136 82.32C242.536 83.24 241.256 84.56 240.296 86.28C239.376 87.96 238.916 89.9 238.916 92.1C238.916 94.3 239.376 96.26 240.296 97.98C241.256 99.66 242.536 100.98 244.136 101.94C245.776 102.86 247.616 103.32 249.656 103.32ZM313.902 75.9C317.902 75.9 321.062 77.06 323.382 79.38C325.742 81.7 326.922 85.14 326.922 89.7V108H321.162V90.36C321.162 87.28 320.442 84.96 319.002 83.4C317.602 81.84 315.582 81.06 312.942 81.06C310.022 81.06 307.702 81.98 305.982 83.82C304.262 85.62 303.402 88.22 303.402 91.62V108H297.642V90.36C297.642 87.28 296.922 84.96 295.482 83.4C294.082 81.84 292.062 81.06 289.422 81.06C286.502 81.06 284.182 81.98 282.462 83.82C280.742 85.62 279.882 88.22 279.882 91.62V108H274.122V76.2H279.642V80.94C280.802 79.3 282.322 78.06 284.202 77.22C286.082 76.34 288.222 75.9 290.622 75.9C293.102 75.9 295.302 76.4 297.222 77.4C299.142 78.4 300.622 79.86 301.662 81.78C302.862 79.94 304.522 78.5 306.642 77.46C308.802 76.42 311.222 75.9 313.902 75.9ZM351.316 108.36C348.156 108.36 345.316 107.66 342.796 106.26C340.276 104.86 338.296 102.94 336.856 100.5C335.456 98.02 334.756 95.22 334.756 92.1C334.756 88.98 335.456 86.2 336.856 83.76C338.296 81.28 340.276 79.36 342.796 78C345.316 76.6 348.156 75.9 351.316 75.9C354.476 75.9 357.296 76.6 359.776 78C362.296 79.36 364.256 81.28 365.656 83.76C367.096 86.2 367.816 88.98 367.816 92.1C367.816 95.22 367.096 98.02 365.656 100.5C364.256 102.94 362.296 104.86 359.776 106.26C357.296 107.66 354.476 108.36 351.316 108.36ZM351.316 103.32C353.356 103.32 355.176 102.86 356.776 101.94C358.416 100.98 359.696 99.66 360.616 97.98C361.536 96.26 361.996 94.3 361.996 92.1C361.996 89.9 361.536 87.96 360.616 86.28C359.696 84.56 358.416 83.24 356.776 82.32C355.176 81.4 353.356 80.94 351.316 80.94C349.276 80.94 347.436 81.4 345.796 82.32C344.196 83.24 342.916 84.56 341.956 86.28C341.036 87.96 340.576 89.9 340.576 92.1C340.576 94.3 341.036 96.26 341.956 97.98C342.916 99.66 344.196 100.98 345.796 101.94C347.436 102.86 349.276 103.32 351.316 103.32ZM408.876 75.9C412.916 75.9 416.116 77.08 418.476 79.44C420.876 81.76 422.076 85.18 422.076 89.7V108H416.316V90.36C416.316 87.28 415.576 84.96 414.096 83.4C412.616 81.84 410.496 81.06 407.736 81.06C404.616 81.06 402.156 81.98 400.356 83.82C398.556 85.62 397.656 88.22 397.656 91.62V108H391.896V76.2H397.416V81C398.576 79.36 400.136 78.1 402.096 77.22C404.096 76.34 406.356 75.9 408.876 75.9ZM446.531 108.36C443.371 108.36 440.531 107.66 438.011 106.26C435.491 104.86 433.511 102.94 432.071 100.5C430.671 98.02 429.971 95.22 429.971 92.1C429.971 88.98 430.671 86.2 432.071 83.76C433.511 81.28 435.491 79.36 438.011 78C440.531 76.6 443.371 75.9 446.531 75.9C449.691 75.9 452.511 76.6 454.991 78C457.511 79.36 459.471 81.28 460.871 83.76C462.311 86.2 463.031 88.98 463.031 92.1C463.031 95.22 462.311 98.02 460.871 100.5C459.471 102.94 457.511 104.86 454.991 106.26C452.511 107.66 449.691 108.36 446.531 108.36ZM446.531 103.32C448.571 103.32 450.391 102.86 451.991 101.94C453.631 100.98 454.911 99.66 455.831 97.98C456.751 96.26 457.211 94.3 457.211 92.1C457.211 89.9 456.751 87.96 455.831 86.28C454.911 84.56 453.631 83.24 451.991 82.32C450.391 81.4 448.571 80.94 446.531 80.94C444.491 80.94 442.651 81.4 441.011 82.32C439.411 83.24 438.131 84.56 437.171 86.28C436.251 87.96 435.791 89.9 435.791 92.1C435.791 94.3 436.251 96.26 437.171 97.98C438.131 99.66 439.411 100.98 441.011 101.94C442.651 102.86 444.491 103.32 446.531 103.32ZM450.131 63.78H457.451L447.371 71.58H441.971L450.131 63.78ZM480.117 108.36C477.517 108.36 475.017 108.02 472.617 107.34C470.217 106.62 468.337 105.72 466.977 104.64L469.377 100.08C470.777 101.08 472.477 101.88 474.477 102.48C476.477 103.08 478.497 103.38 480.537 103.38C485.577 103.38 488.097 101.94 488.097 99.06C488.097 98.1 487.757 97.34 487.077 96.78C486.397 96.22 485.537 95.82 484.497 95.58C483.497 95.3 482.057 95 480.177 94.68C477.617 94.28 475.517 93.82 473.877 93.3C472.277 92.78 470.897 91.9 469.737 90.66C468.577 89.42 467.997 87.68 467.997 85.44C467.997 82.56 469.197 80.26 471.597 78.54C473.997 76.78 477.217 75.9 481.257 75.9C483.377 75.9 485.497 76.16 487.617 76.68C489.737 77.2 491.477 77.9 492.837 78.78L490.377 83.34C487.777 81.66 484.717 80.82 481.197 80.82C478.757 80.82 476.897 81.22 475.617 82.02C474.337 82.82 473.697 83.88 473.697 85.2C473.697 86.24 474.057 87.06 474.777 87.66C475.497 88.26 476.377 88.7 477.417 88.98C478.497 89.26 479.997 89.58 481.917 89.94C484.477 90.38 486.537 90.86 488.097 91.38C489.697 91.86 491.057 92.7 492.177 93.9C493.297 95.1 493.857 96.78 493.857 98.94C493.857 101.82 492.617 104.12 490.137 105.84C487.697 107.52 484.357 108.36 480.117 108.36ZM534.029 75.9C537.109 75.9 539.869 76.58 542.309 77.94C544.749 79.3 546.649 81.2 548.009 83.64C549.409 86.08 550.109 88.9 550.109 92.1C550.109 95.3 549.409 98.14 548.009 100.62C546.649 103.06 544.749 104.96 542.309 106.32C539.869 107.68 537.109 108.36 534.029 108.36C531.749 108.36 529.649 107.92 527.729 107.04C525.849 106.16 524.249 104.88 522.929 103.2V119.64H517.169V76.2H522.689V81.24C523.969 79.48 525.589 78.16 527.549 77.28C529.509 76.36 531.669 75.9 534.029 75.9ZM533.549 103.32C535.589 103.32 537.409 102.86 539.009 101.94C540.649 100.98 541.929 99.66 542.849 97.98C543.809 96.26 544.289 94.3 544.289 92.1C544.289 89.9 543.809 87.96 542.849 86.28C541.929 84.56 540.649 83.24 539.009 82.32C537.409 81.4 535.589 80.94 533.549 80.94C531.549 80.94 529.729 81.42 528.089 82.38C526.489 83.3 525.209 84.6 524.249 86.28C523.329 87.96 522.869 89.9 522.869 92.1C522.869 94.3 523.329 96.26 524.249 97.98C525.169 99.66 526.449 100.98 528.089 101.94C529.729 102.86 531.549 103.32 533.549 103.32ZM571.687 108.36C568.527 108.36 565.687 107.66 563.167 106.26C560.647 104.86 558.667 102.94 557.227 100.5C555.827 98.02 555.127 95.22 555.127 92.1C555.127 88.98 555.827 86.2 557.227 83.76C558.667 81.28 560.647 79.36 563.167 78C565.687 76.6 568.527 75.9 571.687 75.9C574.847 75.9 577.667 76.6 580.147 78C582.667 79.36 584.627 81.28 586.027 83.76C587.467 86.2 588.187 88.98 588.187 92.1C588.187 95.22 587.467 98.02 586.027 100.5C584.627 102.94 582.667 104.86 580.147 106.26C577.667 107.66 574.847 108.36 571.687 108.36ZM571.687 103.32C573.727 103.32 575.547 102.86 577.147 101.94C578.787 100.98 580.067 99.66 580.987 97.98C581.907 96.26 582.367 94.3 582.367 92.1C582.367 89.9 581.907 87.96 580.987 86.28C580.067 84.56 578.787 83.24 577.147 82.32C575.547 81.4 573.727 80.94 571.687 80.94C569.647 80.94 567.807 81.4 566.167 82.32C564.567 83.24 563.287 84.56 562.327 86.28C561.407 87.96 560.947 89.9 560.947 92.1C560.947 94.3 561.407 96.26 562.327 97.98C563.287 99.66 564.567 100.98 566.167 101.94C567.807 102.86 569.647 103.32 571.687 103.32ZM626.153 63.48V108H620.633V102.96C619.353 104.72 617.733 106.06 615.773 106.98C613.813 107.9 611.653 108.36 609.293 108.36C606.213 108.36 603.453 107.68 601.013 106.32C598.573 104.96 596.653 103.06 595.253 100.62C593.893 98.14 593.213 95.3 593.213 92.1C593.213 88.9 593.893 86.08 595.253 83.64C596.653 81.2 598.573 79.3 601.013 77.94C603.453 76.58 606.213 75.9 609.293 75.9C611.573 75.9 613.673 76.34 615.593 77.22C617.513 78.06 619.113 79.32 620.393 81V63.48H626.153ZM609.773 103.32C611.773 103.32 613.593 102.86 615.233 101.94C616.873 100.98 618.153 99.66 619.073 97.98C619.993 96.26 620.453 94.3 620.453 92.1C620.453 89.9 619.993 87.96 619.073 86.28C618.153 84.56 616.873 83.24 615.233 82.32C613.593 81.4 611.773 80.94 609.773 80.94C607.733 80.94 605.893 81.4 604.253 82.32C602.653 83.24 601.373 84.56 600.413 86.28C599.493 87.96 599.033 89.9 599.033 92.1C599.033 94.3 599.493 96.26 600.413 97.98C601.373 99.66 602.653 100.98 604.253 101.94C605.893 102.86 607.733 103.32 609.773 103.32ZM665.792 92.28C665.792 92.72 665.752 93.3 665.672 94.02H639.872C640.232 96.82 641.452 99.08 643.532 100.8C645.652 102.48 648.272 103.32 651.392 103.32C655.192 103.32 658.252 102.04 660.572 99.48L663.752 103.2C662.312 104.88 660.512 106.16 658.352 107.04C656.232 107.92 653.852 108.36 651.212 108.36C647.852 108.36 644.872 107.68 642.272 106.32C639.672 104.92 637.652 102.98 636.212 100.5C634.812 98.02 634.112 95.22 634.112 92.1C634.112 89.02 634.792 86.24 636.152 83.76C637.552 81.28 639.452 79.36 641.852 78C644.292 76.6 647.032 75.9 650.072 75.9C653.112 75.9 655.812 76.6 658.172 78C660.572 79.36 662.432 81.28 663.752 83.76C665.112 86.24 665.792 89.08 665.792 92.28ZM650.072 80.76C647.312 80.76 644.992 81.6 643.112 83.28C641.272 84.96 640.192 87.16 639.872 89.88H660.272C659.952 87.2 658.852 85.02 656.972 83.34C655.132 81.62 652.832 80.76 650.072 80.76ZM713.57 75.9C717.57 75.9 720.73 77.06 723.05 79.38C725.41 81.7 726.59 85.14 726.59 89.7V108H720.83V90.36C720.83 87.28 720.11 84.96 718.67 83.4C717.27 81.84 715.25 81.06 712.61 81.06C709.69 81.06 707.37 81.98 705.65 83.82C703.93 85.62 703.07 88.22 703.07 91.62V108H697.31V90.36C697.31 87.28 696.59 84.96 695.15 83.4C693.75 81.84 691.73 81.06 689.09 81.06C686.17 81.06 683.85 81.98 682.13 83.82C680.41 85.62 679.55 88.22 679.55 91.62V108H673.79V76.2H679.31V80.94C680.47 79.3 681.99 78.06 683.87 77.22C685.75 76.34 687.89 75.9 690.29 75.9C692.77 75.9 694.97 76.4 696.89 77.4C698.81 78.4 700.29 79.86 701.33 81.78C702.53 79.94 704.19 78.5 706.31 77.46C708.47 76.42 710.89 75.9 713.57 75.9ZM750.984 108.36C747.824 108.36 744.984 107.66 742.464 106.26C739.944 104.86 737.964 102.94 736.524 100.5C735.124 98.02 734.424 95.22 734.424 92.1C734.424 88.98 735.124 86.2 736.524 83.76C737.964 81.28 739.944 79.36 742.464 78C744.984 76.6 747.824 75.9 750.984 75.9C754.144 75.9 756.964 76.6 759.444 78C761.964 79.36 763.924 81.28 765.324 83.76C766.764 86.2 767.484 88.98 767.484 92.1C767.484 95.22 766.764 98.02 765.324 100.5C763.924 102.94 761.964 104.86 759.444 106.26C756.964 107.66 754.144 108.36 750.984 108.36ZM750.984 103.32C753.024 103.32 754.844 102.86 756.444 101.94C758.084 100.98 759.364 99.66 760.284 97.98C761.204 96.26 761.664 94.3 761.664 92.1C761.664 89.9 761.204 87.96 760.284 86.28C759.364 84.56 758.084 83.24 756.444 82.32C754.844 81.4 753.024 80.94 750.984 80.94C748.944 80.94 747.104 81.4 745.464 82.32C743.864 83.24 742.584 84.56 741.624 86.28C740.704 87.96 740.244 89.9 740.244 92.1C740.244 94.3 740.704 96.26 741.624 97.98C742.584 99.66 743.864 100.98 745.464 101.94C747.104 102.86 748.944 103.32 750.984 103.32ZM784.57 108.36C781.97 108.36 779.47 108.02 777.07 107.34C774.67 106.62 772.79 105.72 771.43 104.64L773.83 100.08C775.23 101.08 776.93 101.88 778.93 102.48C780.93 103.08 782.95 103.38 784.99 103.38C790.03 103.38 792.55 101.94 792.55 99.06C792.55 98.1 792.21 97.34 791.53 96.78C790.85 96.22 789.99 95.82 788.95 95.58C787.95 95.3 786.51 95 784.63 94.68C782.07 94.28 779.97 93.82 778.33 93.3C776.73 92.78 775.35 91.9 774.19 90.66C773.03 89.42 772.45 87.68 772.45 85.44C772.45 82.56 773.65 80.26 776.05 78.54C778.45 76.78 781.67 75.9 785.71 75.9C787.83 75.9 789.95 76.16 792.07 76.68C794.19 77.2 795.93 77.9 797.29 78.78L794.83 83.34C792.23 81.66 789.17 80.82 785.65 80.82C783.21 80.82 781.35 81.22 780.07 82.02C778.79 82.82 778.15 83.88 778.15 85.2C778.15 86.24 778.51 87.06 779.23 87.66C779.95 88.26 780.83 88.7 781.87 88.98C782.95 89.26 784.45 89.58 786.37 89.94C788.93 90.38 790.99 90.86 792.55 91.38C794.15 91.86 795.51 92.7 796.63 93.9C797.75 95.1 798.31 96.78 798.31 98.94C798.31 101.82 797.07 104.12 794.59 105.84C792.15 107.52 788.81 108.36 784.57 108.36ZM833.262 67.86C829.822 67.86 828.102 69.72 828.102 73.44V76.2H837.342V80.94H828.222V108H822.462V80.94H817.062V76.2H822.462V73.38C822.462 70.22 823.382 67.72 825.222 65.88C827.062 64.04 829.642 63.12 832.962 63.12C834.242 63.12 835.442 63.28 836.562 63.6C837.682 63.92 838.642 64.38 839.442 64.98L837.702 69.36C836.382 68.36 834.902 67.86 833.262 67.86ZM853.769 75.9C858.169 75.9 861.529 76.98 863.849 79.14C866.209 81.3 867.389 84.52 867.389 88.8V108H861.929V103.8C860.969 105.28 859.589 106.42 857.789 107.22C856.029 107.98 853.929 108.36 851.489 108.36C847.929 108.36 845.069 107.5 842.909 105.78C840.789 104.06 839.729 101.8 839.729 99C839.729 96.2 840.749 93.96 842.789 92.28C844.829 90.56 848.069 89.7 852.509 89.7H861.629V88.56C861.629 86.08 860.909 84.18 859.469 82.86C858.029 81.54 855.909 80.88 853.109 80.88C851.229 80.88 849.389 81.2 847.589 81.84C845.789 82.44 844.269 83.26 843.029 84.3L840.629 79.98C842.269 78.66 844.229 77.66 846.509 76.98C848.789 76.26 851.209 75.9 853.769 75.9ZM852.449 103.92C854.649 103.92 856.549 103.44 858.149 102.48C859.749 101.48 860.909 100.08 861.629 98.28V93.84H852.749C847.869 93.84 845.429 95.48 845.429 98.76C845.429 100.36 846.049 101.62 847.289 102.54C848.529 103.46 850.249 103.92 852.449 103.92ZM892.084 108.36C888.844 108.36 885.944 107.66 883.384 106.26C880.864 104.86 878.884 102.94 877.444 100.5C876.004 98.02 875.284 95.22 875.284 92.1C875.284 88.98 876.004 86.2 877.444 83.76C878.884 81.28 880.864 79.36 883.384 78C885.944 76.6 888.844 75.9 892.084 75.9C894.964 75.9 897.524 76.48 899.764 77.64C902.044 78.8 903.804 80.48 905.044 82.68L900.664 85.5C899.664 83.98 898.424 82.84 896.944 82.08C895.464 81.32 893.824 80.94 892.024 80.94C889.944 80.94 888.064 81.4 886.384 82.32C884.744 83.24 883.444 84.56 882.484 86.28C881.564 87.96 881.104 89.9 881.104 92.1C881.104 94.34 881.564 96.32 882.484 98.04C883.444 99.72 884.744 101.02 886.384 101.94C888.064 102.86 889.944 103.32 892.024 103.32C893.824 103.32 895.464 102.94 896.944 102.18C898.424 101.42 899.664 100.28 900.664 98.76L905.044 101.52C903.804 103.72 902.044 105.42 899.764 106.62C897.524 107.78 894.964 108.36 892.084 108.36ZM912.501 76.2H918.261V108H912.501V76.2ZM915.381 70.08C914.261 70.08 913.321 69.72 912.561 69C911.841 68.28 911.481 67.4 911.481 66.36C911.481 65.32 911.841 64.44 912.561 63.72C913.321 62.96 914.261 62.58 915.381 62.58C916.501 62.58 917.421 62.94 918.141 63.66C918.901 64.34 919.281 65.2 919.281 66.24C919.281 67.32 918.901 68.24 918.141 69C917.421 69.72 916.501 70.08 915.381 70.08ZM929.259 63.48H935.019V108H929.259V63.48ZM946.017 76.2H951.777V108H946.017V76.2ZM948.897 70.08C947.777 70.08 946.837 69.72 946.077 69C945.357 68.28 944.997 67.4 944.997 66.36C944.997 65.32 945.357 64.44 946.077 63.72C946.837 62.96 947.777 62.58 948.897 62.58C950.017 62.58 950.937 62.94 951.657 63.66C952.417 64.34 952.797 65.2 952.797 66.24C952.797 67.32 952.417 68.24 951.657 69C950.937 69.72 950.017 70.08 948.897 70.08ZM980.654 106.14C979.814 106.86 978.774 107.42 977.534 107.82C976.294 108.18 975.014 108.36 973.694 108.36C970.494 108.36 968.014 107.5 966.254 105.78C964.494 104.06 963.614 101.6 963.614 98.4V80.94H958.214V76.2H963.614V69.24H969.374V76.2H978.494V80.94H969.374V98.16C969.374 99.88 969.794 101.2 970.634 102.12C971.514 103.04 972.754 103.5 974.354 103.5C976.114 103.5 977.614 103 978.854 102L980.654 106.14ZM999.198 75.9C1003.6 75.9 1006.96 76.98 1009.28 79.14C1011.64 81.3 1012.82 84.52 1012.82 88.8V108H1007.36V103.8C1006.4 105.28 1005.02 106.42 1003.22 107.22C1001.46 107.98 999.358 108.36 996.918 108.36C993.358 108.36 990.498 107.5 988.338 105.78C986.218 104.06 985.158 101.8 985.158 99C985.158 96.2 986.178 93.96 988.218 92.28C990.258 90.56 993.498 89.7 997.938 89.7H1007.06V88.56C1007.06 86.08 1006.34 84.18 1004.9 82.86C1003.46 81.54 1001.34 80.88 998.538 80.88C996.658 80.88 994.818 81.2 993.018 81.84C991.218 82.44 989.698 83.26 988.458 84.3L986.058 79.98C987.698 78.66 989.658 77.66 991.938 76.98C994.218 76.26 996.638 75.9 999.198 75.9ZM997.878 103.92C1000.08 103.92 1001.98 103.44 1003.58 102.48C1005.18 101.48 1006.34 100.08 1007.06 98.28V93.84H998.178C993.298 93.84 990.858 95.48 990.858 98.76C990.858 100.36 991.478 101.62 992.718 102.54C993.958 103.46 995.678 103.92 997.878 103.92ZM1029 81.54C1030 79.7 1031.48 78.3 1033.44 77.34C1035.4 76.38 1037.78 75.9 1040.58 75.9V81.48C1040.26 81.44 1039.82 81.42 1039.26 81.42C1036.14 81.42 1033.68 82.36 1031.88 84.24C1030.12 86.08 1029.24 88.72 1029.24 92.16V108H1023.48V76.2H1029V81.54ZM1075.78 75.9C1080.18 75.9 1083.54 76.98 1085.86 79.14C1088.22 81.3 1089.4 84.52 1089.4 88.8V108H1083.94V103.8C1082.98 105.28 1081.6 106.42 1079.8 107.22C1078.04 107.98 1075.94 108.36 1073.5 108.36C1069.94 108.36 1067.08 107.5 1064.92 105.78C1062.8 104.06 1061.74 101.8 1061.74 99C1061.74 96.2 1062.76 93.96 1064.8 92.28C1066.84 90.56 1070.08 89.7 1074.52 89.7H1083.64V88.56C1083.64 86.08 1082.92 84.18 1081.48 82.86C1080.04 81.54 1077.92 80.88 1075.12 80.88C1073.24 80.88 1071.4 81.2 1069.6 81.84C1067.8 82.44 1066.28 83.26 1065.04 84.3L1062.64 79.98C1064.28 78.66 1066.24 77.66 1068.52 76.98C1070.8 76.26 1073.22 75.9 1075.78 75.9ZM1074.46 103.92C1076.66 103.92 1078.56 103.44 1080.16 102.48C1081.76 101.48 1082.92 100.08 1083.64 98.28V93.84H1074.76C1069.88 93.84 1067.44 95.48 1067.44 98.76C1067.44 100.36 1068.06 101.62 1069.3 102.54C1070.54 103.46 1072.26 103.92 1074.46 103.92ZM1134.05 106.14C1133.21 106.86 1132.17 107.42 1130.93 107.82C1129.69 108.18 1128.41 108.36 1127.09 108.36C1123.89 108.36 1121.41 107.5 1119.65 105.78C1117.89 104.06 1117.01 101.6 1117.01 98.4V80.94H1111.61V76.2H1117.01V69.24H1122.77V76.2H1131.89V80.94H1122.77V98.16C1122.77 99.88 1123.19 101.2 1124.03 102.12C1124.91 103.04 1126.15 103.5 1127.75 103.5C1129.51 103.5 1131.01 103 1132.25 102L1134.05 106.14ZM1146.54 81.54C1147.54 79.7 1149.02 78.3 1150.98 77.34C1152.94 76.38 1155.32 75.9 1158.12 75.9V81.48C1157.8 81.44 1157.36 81.42 1156.8 81.42C1153.68 81.42 1151.22 82.36 1149.42 84.24C1147.66 86.08 1146.78 88.72 1146.78 92.16V108H1141.02V76.2H1146.54V81.54ZM1178.54 108.36C1175.38 108.36 1172.54 107.66 1170.02 106.26C1167.5 104.86 1165.52 102.94 1164.08 100.5C1162.68 98.02 1161.98 95.22 1161.98 92.1C1161.98 88.98 1162.68 86.2 1164.08 83.76C1165.52 81.28 1167.5 79.36 1170.02 78C1172.54 76.6 1175.38 75.9 1178.54 75.9C1181.7 75.9 1184.52 76.6 1187 78C1189.52 79.36 1191.48 81.28 1192.88 83.76C1194.32 86.2 1195.04 88.98 1195.04 92.1C1195.04 95.22 1194.32 98.02 1192.88 100.5C1191.48 102.94 1189.52 104.86 1187 106.26C1184.52 107.66 1181.7 108.36 1178.54 108.36ZM1178.54 103.32C1180.58 103.32 1182.4 102.86 1184 101.94C1185.64 100.98 1186.92 99.66 1187.84 97.98C1188.76 96.26 1189.22 94.3 1189.22 92.1C1189.22 89.9 1188.76 87.96 1187.84 86.28C1186.92 84.56 1185.64 83.24 1184 82.32C1182.4 81.4 1180.58 80.94 1178.54 80.94C1176.5 80.94 1174.66 81.4 1173.02 82.32C1171.42 83.24 1170.14 84.56 1169.18 86.28C1168.26 87.96 1167.8 89.9 1167.8 92.1C1167.8 94.3 1168.26 96.26 1169.18 97.98C1170.14 99.66 1171.42 100.98 1173.02 101.94C1174.66 102.86 1176.5 103.32 1178.54 103.32ZM1216.87 108.36C1213.63 108.36 1210.73 107.66 1208.17 106.26C1205.65 104.86 1203.67 102.94 1202.23 100.5C1200.79 98.02 1200.07 95.22 1200.07 92.1C1200.07 88.98 1200.79 86.2 1202.23 83.76C1203.67 81.28 1205.65 79.36 1208.17 78C1210.73 76.6 1213.63 75.9 1216.87 75.9C1219.75 75.9 1222.31 76.48 1224.55 77.64C1226.83 78.8 1228.59 80.48 1229.83 82.68L1225.45 85.5C1224.45 83.98 1223.21 82.84 1221.73 82.08C1220.25 81.32 1218.61 80.94 1216.81 80.94C1214.73 80.94 1212.85 81.4 1211.17 82.32C1209.53 83.24 1208.23 84.56 1207.27 86.28C1206.35 87.96 1205.89 89.9 1205.89 92.1C1205.89 94.34 1206.35 96.32 1207.27 98.04C1208.23 99.72 1209.53 101.02 1211.17 101.94C1212.85 102.86 1214.73 103.32 1216.81 103.32C1218.61 103.32 1220.25 102.94 1221.73 102.18C1223.21 101.42 1224.45 100.28 1225.45 98.76L1229.83 101.52C1228.59 103.72 1226.83 105.42 1224.55 106.62C1222.31 107.78 1219.75 108.36 1216.87 108.36ZM1248.87 75.9C1253.27 75.9 1256.63 76.98 1258.95 79.14C1261.31 81.3 1262.49 84.52 1262.49 88.8V108H1257.03V103.8C1256.07 105.28 1254.69 106.42 1252.89 107.22C1251.13 107.98 1249.03 108.36 1246.59 108.36C1243.03 108.36 1240.17 107.5 1238.01 105.78C1235.89 104.06 1234.83 101.8 1234.83 99C1234.83 96.2 1235.85 93.96 1237.89 92.28C1239.93 90.56 1243.17 89.7 1247.61 89.7H1256.73V88.56C1256.73 86.08 1256.01 84.18 1254.57 82.86C1253.13 81.54 1251.01 80.88 1248.21 80.88C1246.33 80.88 1244.49 81.2 1242.69 81.84C1240.89 82.44 1239.37 83.26 1238.13 84.3L1235.73 79.98C1237.37 78.66 1239.33 77.66 1241.61 76.98C1243.89 76.26 1246.31 75.9 1248.87 75.9ZM1247.55 103.92C1249.75 103.92 1251.65 103.44 1253.25 102.48C1254.85 101.48 1256.01 100.08 1256.73 98.28V93.84H1247.85C1242.97 93.84 1240.53 95.48 1240.53 98.76C1240.53 100.36 1241.15 101.62 1242.39 102.54C1243.63 103.46 1245.35 103.92 1247.55 103.92ZM1319.26 63.48V108H1313.74V102.96C1312.46 104.72 1310.84 106.06 1308.88 106.98C1306.92 107.9 1304.76 108.36 1302.4 108.36C1299.32 108.36 1296.56 107.68 1294.12 106.32C1291.68 104.96 1289.76 103.06 1288.36 100.62C1287 98.14 1286.32 95.3 1286.32 92.1C1286.32 88.9 1287 86.08 1288.36 83.64C1289.76 81.2 1291.68 79.3 1294.12 77.94C1296.56 76.58 1299.32 75.9 1302.4 75.9C1304.68 75.9 1306.78 76.34 1308.7 77.22C1310.62 78.06 1312.22 79.32 1313.5 81V63.48H1319.26ZM1302.88 103.32C1304.88 103.32 1306.7 102.86 1308.34 101.94C1309.98 100.98 1311.26 99.66 1312.18 97.98C1313.1 96.26 1313.56 94.3 1313.56 92.1C1313.56 89.9 1313.1 87.96 1312.18 86.28C1311.26 84.56 1309.98 83.24 1308.34 82.32C1306.7 81.4 1304.88 80.94 1302.88 80.94C1300.84 80.94 1299 81.4 1297.36 82.32C1295.76 83.24 1294.48 84.56 1293.52 86.28C1292.6 87.96 1292.14 89.9 1292.14 92.1C1292.14 94.3 1292.6 96.26 1293.52 97.98C1294.48 99.66 1295.76 100.98 1297.36 101.94C1299 102.86 1300.84 103.32 1302.88 103.32ZM1358.9 92.28C1358.9 92.72 1358.86 93.3 1358.78 94.02H1332.98C1333.34 96.82 1334.56 99.08 1336.64 100.8C1338.76 102.48 1341.38 103.32 1344.5 103.32C1348.3 103.32 1351.36 102.04 1353.68 99.48L1356.86 103.2C1355.42 104.88 1353.62 106.16 1351.46 107.04C1349.34 107.92 1346.96 108.36 1344.32 108.36C1340.96 108.36 1337.98 107.68 1335.38 106.32C1332.78 104.92 1330.76 102.98 1329.32 100.5C1327.92 98.02 1327.22 95.22 1327.22 92.1C1327.22 89.02 1327.9 86.24 1329.26 83.76C1330.66 81.28 1332.56 79.36 1334.96 78C1337.4 76.6 1340.14 75.9 1343.18 75.9C1346.22 75.9 1348.92 76.6 1351.28 78C1353.68 79.36 1355.54 81.28 1356.86 83.76C1358.22 86.24 1358.9 89.08 1358.9 92.28ZM1343.18 80.76C1340.42 80.76 1338.1 81.6 1336.22 83.28C1334.38 84.96 1333.3 87.16 1332.98 89.88H1353.38C1353.06 87.2 1351.96 85.02 1350.08 83.34C1348.24 81.62 1345.94 80.76 1343.18 80.76ZM32.1032 181.36C28.8632 181.36 25.9632 180.66 23.4032 179.26C20.8832 177.86 18.9032 175.94 17.4632 173.5C16.0232 171.02 15.3032 168.22 15.3032 165.1C15.3032 161.98 16.0232 159.2 17.4632 156.76C18.9032 154.28 20.8832 152.36 23.4032 151C25.9632 149.6 28.8632 148.9 32.1032 148.9C34.9832 148.9 37.5432 149.48 39.7832 150.64C42.0632 151.8 43.8232 153.48 45.0632 155.68L40.6832 158.5C39.6832 156.98 38.4432 155.84 36.9632 155.08C35.4832 154.32 33.8432 153.94 32.0432 153.94C29.9632 153.94 28.0832 154.4 26.4032 155.32C24.7632 156.24 23.4632 157.56 22.5032 159.28C21.5832 160.96 21.1232 162.9 21.1232 165.1C21.1232 167.34 21.5832 169.32 22.5032 171.04C23.4632 172.72 24.7632 174.02 26.4032 174.94C28.0832 175.86 29.9632 176.32 32.0432 176.32C33.8432 176.32 35.4832 175.94 36.9632 175.18C38.4432 174.42 39.6832 173.28 40.6832 171.76L45.0632 174.52C43.8232 176.72 42.0632 178.42 39.7832 179.62C37.5432 180.78 34.9832 181.36 32.1032 181.36ZM65.6718 181.36C62.5118 181.36 59.6718 180.66 57.1518 179.26C54.6318 177.86 52.6518 175.94 51.2118 173.5C49.8118 171.02 49.1118 168.22 49.1118 165.1C49.1118 161.98 49.8118 159.2 51.2118 156.76C52.6518 154.28 54.6318 152.36 57.1518 151C59.6718 149.6 62.5118 148.9 65.6718 148.9C68.8318 148.9 71.6518 149.6 74.1318 151C76.6518 152.36 78.6118 154.28 80.0118 156.76C81.4518 159.2 82.1718 161.98 82.1718 165.1C82.1718 168.22 81.4518 171.02 80.0118 173.5C78.6118 175.94 76.6518 177.86 74.1318 179.26C71.6518 180.66 68.8318 181.36 65.6718 181.36ZM65.6718 176.32C67.7118 176.32 69.5318 175.86 71.1318 174.94C72.7718 173.98 74.0518 172.66 74.9718 170.98C75.8918 169.26 76.3518 167.3 76.3518 165.1C76.3518 162.9 75.8918 160.96 74.9718 159.28C74.0518 157.56 72.7718 156.24 71.1318 155.32C69.5318 154.4 67.7118 153.94 65.6718 153.94C63.6318 153.94 61.7918 154.4 60.1518 155.32C58.5518 156.24 57.2718 157.56 56.3118 159.28C55.3918 160.96 54.9318 162.9 54.9318 165.1C54.9318 167.3 55.3918 169.26 56.3118 170.98C57.2718 172.66 58.5518 173.98 60.1518 174.94C61.7918 175.86 63.6318 176.32 65.6718 176.32ZM107.118 148.9C111.158 148.9 114.358 150.08 116.718 152.44C119.118 154.76 120.318 158.18 120.318 162.7V181H114.558V163.36C114.558 160.28 113.818 157.96 112.338 156.4C110.858 154.84 108.738 154.06 105.978 154.06C102.858 154.06 100.398 154.98 98.5977 156.82C96.7977 158.62 95.8977 161.22 95.8977 164.62V181H90.1377V149.2H95.6577V154C96.8177 152.36 98.3777 151.1 100.338 150.22C102.338 149.34 104.598 148.9 107.118 148.9ZM147.958 148.9C151.998 148.9 155.198 150.08 157.558 152.44C159.958 154.76 161.158 158.18 161.158 162.7V181H155.398V163.36C155.398 160.28 154.658 157.96 153.178 156.4C151.698 154.84 149.578 154.06 146.818 154.06C143.698 154.06 141.238 154.98 139.438 156.82C137.638 158.62 136.738 161.22 136.738 164.62V181H130.978V136.48H136.738V153.7C137.938 152.18 139.498 151 141.418 150.16C143.378 149.32 145.558 148.9 147.958 148.9ZM200.733 165.28C200.733 165.72 200.693 166.3 200.613 167.02H174.813C175.173 169.82 176.393 172.08 178.473 173.8C180.593 175.48 183.213 176.32 186.333 176.32C190.133 176.32 193.193 175.04 195.513 172.48L198.693 176.2C197.253 177.88 195.453 179.16 193.293 180.04C191.173 180.92 188.793 181.36 186.153 181.36C182.793 181.36 179.813 180.68 177.213 179.32C174.613 177.92 172.593 175.98 171.153 173.5C169.753 171.02 169.053 168.22 169.053 165.1C169.053 162.02 169.733 159.24 171.093 156.76C172.493 154.28 174.393 152.36 176.793 151C179.233 149.6 181.973 148.9 185.013 148.9C188.053 148.9 190.753 149.6 193.113 151C195.513 152.36 197.373 154.28 198.693 156.76C200.053 159.24 200.733 162.08 200.733 165.28ZM185.013 153.76C182.253 153.76 179.933 154.6 178.053 156.28C176.213 157.96 175.133 160.16 174.813 162.88H195.213C194.893 160.2 193.793 158.02 191.913 156.34C190.073 154.62 187.773 153.76 185.013 153.76ZM222.591 181.36C219.351 181.36 216.451 180.66 213.891 179.26C211.371 177.86 209.391 175.94 207.951 173.5C206.511 171.02 205.791 168.22 205.791 165.1C205.791 161.98 206.511 159.2 207.951 156.76C209.391 154.28 211.371 152.36 213.891 151C216.451 149.6 219.351 148.9 222.591 148.9C225.471 148.9 228.031 149.48 230.271 150.64C232.551 151.8 234.311 153.48 235.551 155.68L231.171 158.5C230.171 156.98 228.931 155.84 227.451 155.08C225.971 154.32 224.331 153.94 222.531 153.94C220.451 153.94 218.571 154.4 216.891 155.32C215.251 156.24 213.951 157.56 212.991 159.28C212.071 160.96 211.611 162.9 211.611 165.1C211.611 167.34 212.071 169.32 212.991 171.04C213.951 172.72 215.251 174.02 216.891 174.94C218.571 175.86 220.451 176.32 222.531 176.32C224.331 176.32 225.971 175.94 227.451 175.18C228.931 174.42 230.171 173.28 231.171 171.76L235.551 174.52C234.311 176.72 232.551 178.42 230.271 179.62C228.031 180.78 225.471 181.36 222.591 181.36ZM243.009 149.2H248.769V181H243.009V149.2ZM245.889 143.08C244.769 143.08 243.829 142.72 243.069 142C242.349 141.28 241.989 140.4 241.989 139.36C241.989 138.32 242.349 137.44 243.069 136.72C243.829 135.96 244.769 135.58 245.889 135.58C247.009 135.58 247.929 135.94 248.649 136.66C249.409 137.34 249.789 138.2 249.789 139.24C249.789 140.32 249.409 141.24 248.649 142C247.929 142.72 247.009 143.08 245.889 143.08ZM299.547 148.9C303.547 148.9 306.707 150.06 309.027 152.38C311.387 154.7 312.567 158.14 312.567 162.7V181H306.807V163.36C306.807 160.28 306.087 157.96 304.647 156.4C303.247 154.84 301.227 154.06 298.587 154.06C295.667 154.06 293.347 154.98 291.627 156.82C289.907 158.62 289.047 161.22 289.047 164.62V181H283.287V163.36C283.287 160.28 282.567 157.96 281.127 156.4C279.727 154.84 277.707 154.06 275.067 154.06C272.147 154.06 269.827 154.98 268.107 156.82C266.387 158.62 265.527 161.22 265.527 164.62V181H259.767V149.2H265.287V153.94C266.447 152.3 267.967 151.06 269.847 150.22C271.727 149.34 273.867 148.9 276.267 148.9C278.747 148.9 280.947 149.4 282.867 150.4C284.787 151.4 286.267 152.86 287.307 154.78C288.507 152.94 290.167 151.5 292.287 150.46C294.447 149.42 296.867 148.9 299.547 148.9ZM352.081 165.28C352.081 165.72 352.041 166.3 351.961 167.02H326.161C326.521 169.82 327.741 172.08 329.821 173.8C331.941 175.48 334.561 176.32 337.681 176.32C341.481 176.32 344.541 175.04 346.861 172.48L350.041 176.2C348.601 177.88 346.801 179.16 344.641 180.04C342.521 180.92 340.141 181.36 337.501 181.36C334.141 181.36 331.161 180.68 328.561 179.32C325.961 177.92 323.941 175.98 322.501 173.5C321.101 171.02 320.401 168.22 320.401 165.1C320.401 162.02 321.081 159.24 322.441 156.76C323.841 154.28 325.741 152.36 328.141 151C330.581 149.6 333.321 148.9 336.361 148.9C339.401 148.9 342.101 149.6 344.461 151C346.861 152.36 348.721 154.28 350.041 156.76C351.401 159.24 352.081 162.08 352.081 165.28ZM336.361 153.76C333.601 153.76 331.281 154.6 329.401 156.28C327.561 157.96 326.481 160.16 326.161 162.88H346.561C346.241 160.2 345.141 158.02 343.261 156.34C341.421 154.62 339.121 153.76 336.361 153.76ZM377.059 148.9C381.099 148.9 384.299 150.08 386.659 152.44C389.059 154.76 390.259 158.18 390.259 162.7V181H384.499V163.36C384.499 160.28 383.759 157.96 382.279 156.4C380.799 154.84 378.679 154.06 375.919 154.06C372.799 154.06 370.339 154.98 368.539 156.82C366.739 158.62 365.839 161.22 365.839 164.62V181H360.079V149.2H365.599V154C366.759 152.36 368.319 151.1 370.279 150.22C372.279 149.34 374.539 148.9 377.059 148.9ZM418.799 179.14C417.959 179.86 416.919 180.42 415.679 180.82C414.439 181.18 413.159 181.36 411.839 181.36C408.639 181.36 406.159 180.5 404.399 178.78C402.639 177.06 401.759 174.6 401.759 171.4V153.94H396.359V149.2H401.759V142.24H407.519V149.2H416.639V153.94H407.519V171.16C407.519 172.88 407.939 174.2 408.779 175.12C409.659 176.04 410.899 176.5 412.499 176.5C414.259 176.5 415.759 176 416.999 175L418.799 179.14ZM438.328 181.36C435.168 181.36 432.328 180.66 429.808 179.26C427.288 177.86 425.308 175.94 423.868 173.5C422.468 171.02 421.768 168.22 421.768 165.1C421.768 161.98 422.468 159.2 423.868 156.76C425.308 154.28 427.288 152.36 429.808 151C432.328 149.6 435.168 148.9 438.328 148.9C441.488 148.9 444.308 149.6 446.788 151C449.308 152.36 451.268 154.28 452.668 156.76C454.108 159.2 454.828 161.98 454.828 165.1C454.828 168.22 454.108 171.02 452.668 173.5C451.268 175.94 449.308 177.86 446.788 179.26C444.308 180.66 441.488 181.36 438.328 181.36ZM438.328 176.32C440.368 176.32 442.188 175.86 443.788 174.94C445.428 173.98 446.708 172.66 447.628 170.98C448.548 169.26 449.008 167.3 449.008 165.1C449.008 162.9 448.548 160.96 447.628 159.28C446.708 157.56 445.428 156.24 443.788 155.32C442.188 154.4 440.368 153.94 438.328 153.94C436.288 153.94 434.448 154.4 432.808 155.32C431.208 156.24 429.928 157.56 428.968 159.28C428.048 160.96 427.588 162.9 427.588 165.1C427.588 167.3 428.048 169.26 428.968 170.98C429.928 172.66 431.208 173.98 432.808 174.94C434.448 175.86 436.288 176.32 438.328 176.32ZM507.647 165.28C507.647 165.72 507.607 166.3 507.527 167.02H481.727C482.087 169.82 483.307 172.08 485.387 173.8C487.507 175.48 490.127 176.32 493.247 176.32C497.047 176.32 500.107 175.04 502.427 172.48L505.607 176.2C504.167 177.88 502.367 179.16 500.207 180.04C498.087 180.92 495.707 181.36 493.067 181.36C489.707 181.36 486.727 180.68 484.127 179.32C481.527 177.92 479.507 175.98 478.067 173.5C476.667 171.02 475.967 168.22 475.967 165.1C475.967 162.02 476.647 159.24 478.007 156.76C479.407 154.28 481.307 152.36 483.707 151C486.147 149.6 488.887 148.9 491.927 148.9C494.967 148.9 497.667 149.6 500.027 151C502.427 152.36 504.287 154.28 505.607 156.76C506.967 159.24 507.647 162.08 507.647 165.28ZM491.927 153.76C489.167 153.76 486.847 154.6 484.967 156.28C483.127 157.96 482.047 160.16 481.727 162.88H502.127C501.807 160.2 500.707 158.02 498.827 156.34C496.987 154.62 494.687 153.76 491.927 153.76ZM532.626 148.9C536.666 148.9 539.866 150.08 542.226 152.44C544.626 154.76 545.826 158.18 545.826 162.7V181H540.066V163.36C540.066 160.28 539.326 157.96 537.846 156.4C536.366 154.84 534.246 154.06 531.486 154.06C528.366 154.06 525.906 154.98 524.106 156.82C522.306 158.62 521.406 161.22 521.406 164.62V181H515.646V149.2H521.166V154C522.326 152.36 523.886 151.1 525.846 150.22C527.846 149.34 530.106 148.9 532.626 148.9ZM574.365 179.14C573.525 179.86 572.485 180.42 571.245 180.82C570.005 181.18 568.725 181.36 567.405 181.36C564.205 181.36 561.725 180.5 559.965 178.78C558.205 177.06 557.325 174.6 557.325 171.4V153.94H551.925V149.2H557.325V142.24H563.085V149.2H572.205V153.94H563.085V171.16C563.085 172.88 563.505 174.2 564.345 175.12C565.225 176.04 566.465 176.5 568.065 176.5C569.825 176.5 571.325 176 572.565 175L574.365 179.14ZM586.849 154.54C587.849 152.7 589.329 151.3 591.289 150.34C593.249 149.38 595.629 148.9 598.429 148.9V154.48C598.109 154.44 597.669 154.42 597.109 154.42C593.989 154.42 591.529 155.36 589.729 157.24C587.969 159.08 587.089 161.72 587.089 165.16V181H581.329V149.2H586.849V154.54ZM633.975 165.28C633.975 165.72 633.935 166.3 633.855 167.02H608.055C608.415 169.82 609.635 172.08 611.715 173.8C613.835 175.48 616.455 176.32 619.575 176.32C623.375 176.32 626.435 175.04 628.755 172.48L631.935 176.2C630.495 177.88 628.695 179.16 626.535 180.04C624.415 180.92 622.035 181.36 619.395 181.36C616.035 181.36 613.055 180.68 610.455 179.32C607.855 177.92 605.835 175.98 604.395 173.5C602.995 171.02 602.295 168.22 602.295 165.1C602.295 162.02 602.975 159.24 604.335 156.76C605.735 154.28 607.635 152.36 610.035 151C612.475 149.6 615.215 148.9 618.255 148.9C621.295 148.9 623.995 149.6 626.355 151C628.755 152.36 630.615 154.28 631.935 156.76C633.295 159.24 633.975 162.08 633.975 165.28ZM618.255 153.76C615.495 153.76 613.175 154.6 611.295 156.28C609.455 157.96 608.375 160.16 608.055 162.88H628.455C628.135 160.2 627.035 158.02 625.155 156.34C623.315 154.62 621.015 153.76 618.255 153.76ZM671.707 181.36C668.547 181.36 665.707 180.66 663.187 179.26C660.667 177.86 658.687 175.94 657.247 173.5C655.847 171.02 655.147 168.22 655.147 165.1C655.147 161.98 655.847 159.2 657.247 156.76C658.687 154.28 660.667 152.36 663.187 151C665.707 149.6 668.547 148.9 671.707 148.9C674.867 148.9 677.687 149.6 680.167 151C682.687 152.36 684.647 154.28 686.047 156.76C687.487 159.2 688.207 161.98 688.207 165.1C688.207 168.22 687.487 171.02 686.047 173.5C684.647 175.94 682.687 177.86 680.167 179.26C677.687 180.66 674.867 181.36 671.707 181.36ZM671.707 176.32C673.747 176.32 675.567 175.86 677.167 174.94C678.807 173.98 680.087 172.66 681.007 170.98C681.927 169.26 682.387 167.3 682.387 165.1C682.387 162.9 681.927 160.96 681.007 159.28C680.087 157.56 678.807 156.24 677.167 155.32C675.567 154.4 673.747 153.94 671.707 153.94C669.667 153.94 667.827 154.4 666.187 155.32C664.587 156.24 663.307 157.56 662.347 159.28C661.427 160.96 660.967 162.9 660.967 165.1C660.967 167.3 661.427 169.26 662.347 170.98C663.307 172.66 664.587 173.98 666.187 174.94C667.827 175.86 669.667 176.32 671.707 176.32ZM705.293 181.36C702.693 181.36 700.193 181.02 697.793 180.34C695.393 179.62 693.513 178.72 692.153 177.64L694.553 173.08C695.953 174.08 697.653 174.88 699.653 175.48C701.653 176.08 703.673 176.38 705.713 176.38C710.753 176.38 713.273 174.94 713.273 172.06C713.273 171.1 712.933 170.34 712.253 169.78C711.573 169.22 710.713 168.82 709.673 168.58C708.673 168.3 707.233 168 705.353 167.68C702.793 167.28 700.693 166.82 699.053 166.3C697.453 165.78 696.073 164.9 694.913 163.66C693.753 162.42 693.173 160.68 693.173 158.44C693.173 155.56 694.373 153.26 696.773 151.54C699.173 149.78 702.393 148.9 706.433 148.9C708.553 148.9 710.673 149.16 712.793 149.68C714.913 150.2 716.653 150.9 718.013 151.78L715.553 156.34C712.953 154.66 709.893 153.82 706.373 153.82C703.933 153.82 702.073 154.22 700.793 155.02C699.513 155.82 698.873 156.88 698.873 158.2C698.873 159.24 699.233 160.06 699.953 160.66C700.673 161.26 701.553 161.7 702.593 161.98C703.673 162.26 705.173 162.58 707.093 162.94C709.653 163.38 711.713 163.86 713.273 164.38C714.873 164.86 716.233 165.7 717.353 166.9C718.473 168.1 719.033 169.78 719.033 171.94C719.033 174.82 717.793 177.12 715.313 178.84C712.873 180.52 709.533 181.36 705.293 181.36ZM759.205 148.9C762.285 148.9 765.045 149.58 767.485 150.94C769.925 152.3 771.825 154.2 773.185 156.64C774.585 159.08 775.285 161.9 775.285 165.1C775.285 168.3 774.585 171.14 773.185 173.62C771.825 176.06 769.925 177.96 767.485 179.32C765.045 180.68 762.285 181.36 759.205 181.36C756.925 181.36 754.825 180.92 752.905 180.04C751.025 179.16 749.425 177.88 748.105 176.2V192.64H742.345V149.2H747.865V154.24C749.145 152.48 750.765 151.16 752.725 150.28C754.685 149.36 756.845 148.9 759.205 148.9ZM758.725 176.32C760.765 176.32 762.585 175.86 764.185 174.94C765.825 173.98 767.105 172.66 768.025 170.98C768.985 169.26 769.465 167.3 769.465 165.1C769.465 162.9 768.985 160.96 768.025 159.28C767.105 157.56 765.825 156.24 764.185 155.32C762.585 154.4 760.765 153.94 758.725 153.94C756.725 153.94 754.905 154.42 753.265 155.38C751.665 156.3 750.385 157.6 749.425 159.28C748.505 160.96 748.045 162.9 748.045 165.1C748.045 167.3 748.505 169.26 749.425 170.98C750.345 172.66 751.625 173.98 753.265 174.94C754.905 175.86 756.725 176.32 758.725 176.32ZM788.763 154.54C789.763 152.7 791.243 151.3 793.203 150.34C795.163 149.38 797.543 148.9 800.343 148.9V154.48C800.023 154.44 799.583 154.42 799.023 154.42C795.903 154.42 793.443 155.36 791.643 157.24C789.883 159.08 789.003 161.72 789.003 165.16V181H783.243V149.2H788.763V154.54ZM820.769 181.36C817.609 181.36 814.769 180.66 812.249 179.26C809.729 177.86 807.749 175.94 806.309 173.5C804.909 171.02 804.209 168.22 804.209 165.1C804.209 161.98 804.909 159.2 806.309 156.76C807.749 154.28 809.729 152.36 812.249 151C814.769 149.6 817.609 148.9 820.769 148.9C823.929 148.9 826.749 149.6 829.229 151C831.749 152.36 833.709 154.28 835.109 156.76C836.549 159.2 837.269 161.98 837.269 165.1C837.269 168.22 836.549 171.02 835.109 173.5C833.709 175.94 831.749 177.86 829.229 179.26C826.749 180.66 823.929 181.36 820.769 181.36ZM820.769 176.32C822.809 176.32 824.629 175.86 826.229 174.94C827.869 173.98 829.149 172.66 830.069 170.98C830.989 169.26 831.449 167.3 831.449 165.1C831.449 162.9 830.989 160.96 830.069 159.28C829.149 157.56 827.869 156.24 826.229 155.32C824.629 154.4 822.809 153.94 820.769 153.94C818.729 153.94 816.889 154.4 815.249 155.32C813.649 156.24 812.369 157.56 811.409 159.28C810.489 160.96 810.029 162.9 810.029 165.1C810.029 167.3 810.489 169.26 811.409 170.98C812.369 172.66 813.649 173.98 815.249 174.94C816.889 175.86 818.729 176.32 820.769 176.32ZM856.875 140.86C853.435 140.86 851.715 142.72 851.715 146.44V149.2H860.955V153.94H851.835V181H846.075V153.94H840.675V149.2H846.075V146.38C846.075 143.22 846.995 140.72 848.835 138.88C850.675 137.04 853.255 136.12 856.575 136.12C857.855 136.12 859.055 136.28 860.175 136.6C861.295 136.92 862.255 137.38 863.055 137.98L861.315 142.36C859.995 141.36 858.515 140.86 856.875 140.86ZM871.215 149.2H876.975V181H871.215V149.2ZM874.095 143.08C872.975 143.08 872.035 142.72 871.275 142C870.555 141.28 870.195 140.4 870.195 139.36C870.195 138.32 870.555 137.44 871.275 136.72C872.035 135.96 872.975 135.58 874.095 135.58C875.215 135.58 876.135 135.94 876.855 136.66C877.615 137.34 877.995 138.2 877.995 139.24C877.995 140.32 877.615 141.24 876.855 142C876.135 142.72 875.215 143.08 874.095 143.08ZM897.07 181.36C894.47 181.36 891.97 181.02 889.57 180.34C887.17 179.62 885.29 178.72 883.93 177.64L886.33 173.08C887.73 174.08 889.43 174.88 891.43 175.48C893.43 176.08 895.45 176.38 897.49 176.38C902.53 176.38 905.05 174.94 905.05 172.06C905.05 171.1 904.71 170.34 904.03 169.78C903.35 169.22 902.49 168.82 901.45 168.58C900.45 168.3 899.01 168 897.13 167.68C894.57 167.28 892.47 166.82 890.83 166.3C889.23 165.78 887.85 164.9 886.69 163.66C885.53 162.42 884.95 160.68 884.95 158.44C884.95 155.56 886.15 153.26 888.55 151.54C890.95 149.78 894.17 148.9 898.21 148.9C900.33 148.9 902.45 149.16 904.57 149.68C906.69 150.2 908.43 150.9 909.79 151.78L907.33 156.34C904.73 154.66 901.67 153.82 898.15 153.82C895.71 153.82 893.85 154.22 892.57 155.02C891.29 155.82 890.65 156.88 890.65 158.2C890.65 159.24 891.01 160.06 891.73 160.66C892.45 161.26 893.33 161.7 894.37 161.98C895.45 162.26 896.95 162.58 898.87 162.94C901.43 163.38 903.49 163.86 905.05 164.38C906.65 164.86 908.01 165.7 909.13 166.9C910.25 168.1 910.81 169.78 910.81 171.94C910.81 174.82 909.57 177.12 907.09 178.84C904.65 180.52 901.31 181.36 897.07 181.36ZM927.129 181.36C924.529 181.36 922.029 181.02 919.629 180.34C917.229 179.62 915.349 178.72 913.989 177.64L916.389 173.08C917.789 174.08 919.489 174.88 921.489 175.48C923.489 176.08 925.509 176.38 927.549 176.38C932.589 176.38 935.109 174.94 935.109 172.06C935.109 171.1 934.769 170.34 934.089 169.78C933.409 169.22 932.549 168.82 931.509 168.58C930.509 168.3 929.069 168 927.189 167.68C924.629 167.28 922.529 166.82 920.889 166.3C919.289 165.78 917.909 164.9 916.749 163.66C915.589 162.42 915.009 160.68 915.009 158.44C915.009 155.56 916.209 153.26 918.609 151.54C921.009 149.78 924.229 148.9 928.269 148.9C930.389 148.9 932.509 149.16 934.629 149.68C936.749 150.2 938.489 150.9 939.849 151.78L937.389 156.34C934.789 154.66 931.729 153.82 928.209 153.82C925.769 153.82 923.909 154.22 922.629 155.02C921.349 155.82 920.709 156.88 920.709 158.2C920.709 159.24 921.069 160.06 921.789 160.66C922.509 161.26 923.389 161.7 924.429 161.98C925.509 162.26 927.009 162.58 928.929 162.94C931.489 163.38 933.549 163.86 935.109 164.38C936.709 164.86 938.069 165.7 939.189 166.9C940.309 168.1 940.869 169.78 940.869 171.94C940.869 174.82 939.629 177.12 937.149 178.84C934.709 180.52 931.369 181.36 927.129 181.36ZM948.067 149.2H953.827V181H948.067V149.2ZM950.947 143.08C949.827 143.08 948.887 142.72 948.127 142C947.407 141.28 947.047 140.4 947.047 139.36C947.047 138.32 947.407 137.44 948.127 136.72C948.887 135.96 949.827 135.58 950.947 135.58C952.067 135.58 952.987 135.94 953.707 136.66C954.467 137.34 954.847 138.2 954.847 139.24C954.847 140.32 954.467 141.24 953.707 142C952.987 142.72 952.067 143.08 950.947 143.08ZM978.445 181.36C975.285 181.36 972.445 180.66 969.925 179.26C967.405 177.86 965.425 175.94 963.985 173.5C962.585 171.02 961.885 168.22 961.885 165.1C961.885 161.98 962.585 159.2 963.985 156.76C965.425 154.28 967.405 152.36 969.925 151C972.445 149.6 975.285 148.9 978.445 148.9C981.605 148.9 984.425 149.6 986.905 151C989.425 152.36 991.385 154.28 992.785 156.76C994.225 159.2 994.945 161.98 994.945 165.1C994.945 168.22 994.225 171.02 992.785 173.5C991.385 175.94 989.425 177.86 986.905 179.26C984.425 180.66 981.605 181.36 978.445 181.36ZM978.445 176.32C980.485 176.32 982.305 175.86 983.905 174.94C985.545 173.98 986.825 172.66 987.745 170.98C988.665 169.26 989.125 167.3 989.125 165.1C989.125 162.9 988.665 160.96 987.745 159.28C986.825 157.56 985.545 156.24 983.905 155.32C982.305 154.4 980.485 153.94 978.445 153.94C976.405 153.94 974.565 154.4 972.925 155.32C971.325 156.24 970.045 157.56 969.085 159.28C968.165 160.96 967.705 162.9 967.705 165.1C967.705 167.3 968.165 169.26 969.085 170.98C970.045 172.66 971.325 173.98 972.925 174.94C974.565 175.86 976.405 176.32 978.445 176.32ZM1019.89 148.9C1023.93 148.9 1027.13 150.08 1029.49 152.44C1031.89 154.76 1033.09 158.18 1033.09 162.7V181H1027.33V163.36C1027.33 160.28 1026.59 157.96 1025.11 156.4C1023.63 154.84 1021.51 154.06 1018.75 154.06C1015.63 154.06 1013.17 154.98 1011.37 156.82C1009.57 158.62 1008.67 161.22 1008.67 164.62V181H1002.91V149.2H1008.43V154C1009.59 152.36 1011.15 151.1 1013.11 150.22C1015.11 149.34 1017.37 148.9 1019.89 148.9ZM1055.33 148.9C1059.73 148.9 1063.09 149.98 1065.41 152.14C1067.77 154.3 1068.95 157.52 1068.95 161.8V181H1063.49V176.8C1062.53 178.28 1061.15 179.42 1059.35 180.22C1057.59 180.98 1055.49 181.36 1053.05 181.36C1049.49 181.36 1046.63 180.5 1044.47 178.78C1042.35 177.06 1041.29 174.8 1041.29 172C1041.29 169.2 1042.31 166.96 1044.35 165.28C1046.39 163.56 1049.63 162.7 1054.07 162.7H1063.19V161.56C1063.19 159.08 1062.47 157.18 1061.03 155.86C1059.59 154.54 1057.47 153.88 1054.67 153.88C1052.79 153.88 1050.95 154.2 1049.15 154.84C1047.35 155.44 1045.83 156.26 1044.59 157.3L1042.19 152.98C1043.83 151.66 1045.79 150.66 1048.07 149.98C1050.35 149.26 1052.77 148.9 1055.33 148.9ZM1054.01 176.92C1056.21 176.92 1058.11 176.44 1059.71 175.48C1061.31 174.48 1062.47 173.08 1063.19 171.28V166.84H1054.31C1049.43 166.84 1046.99 168.48 1046.99 171.76C1046.99 173.36 1047.61 174.62 1048.85 175.54C1050.09 176.46 1051.81 176.92 1054.01 176.92ZM1079.61 149.2H1085.37V181H1079.61V149.2ZM1082.49 143.08C1081.37 143.08 1080.43 142.72 1079.67 142C1078.95 141.28 1078.59 140.4 1078.59 139.36C1078.59 138.32 1078.95 137.44 1079.67 136.72C1080.43 135.96 1081.37 135.58 1082.49 135.58C1083.61 135.58 1084.53 135.94 1085.25 136.66C1086.01 137.34 1086.39 138.2 1086.39 139.24C1086.39 140.32 1086.01 141.24 1085.25 142C1084.53 142.72 1083.61 143.08 1082.49 143.08ZM1105.49 181.36C1102.89 181.36 1100.39 181.02 1097.99 180.34C1095.59 179.62 1093.71 178.72 1092.35 177.64L1094.75 173.08C1096.15 174.08 1097.85 174.88 1099.85 175.48C1101.85 176.08 1103.87 176.38 1105.91 176.38C1110.95 176.38 1113.47 174.94 1113.47 172.06C1113.47 171.1 1113.13 170.34 1112.45 169.78C1111.77 169.22 1110.91 168.82 1109.87 168.58C1108.87 168.3 1107.43 168 1105.55 167.68C1102.99 167.28 1100.89 166.82 1099.25 166.3C1097.65 165.78 1096.27 164.9 1095.11 163.66C1093.95 162.42 1093.37 160.68 1093.37 158.44C1093.37 155.56 1094.57 153.26 1096.97 151.54C1099.37 149.78 1102.59 148.9 1106.63 148.9C1108.75 148.9 1110.87 149.16 1112.99 149.68C1115.11 150.2 1116.85 150.9 1118.21 151.78L1115.75 156.34C1113.15 154.66 1110.09 153.82 1106.57 153.82C1104.13 153.82 1102.27 154.22 1100.99 155.02C1099.71 155.82 1099.07 156.88 1099.07 158.2C1099.07 159.24 1099.43 160.06 1100.15 160.66C1100.87 161.26 1101.75 161.7 1102.79 161.98C1103.87 162.26 1105.37 162.58 1107.29 162.94C1109.85 163.38 1111.91 163.86 1113.47 164.38C1115.07 164.86 1116.43 165.7 1117.55 166.9C1118.67 168.1 1119.23 169.78 1119.23 171.94C1119.23 174.82 1117.99 177.12 1115.51 178.84C1113.07 180.52 1109.73 181.36 1105.49 181.36ZM1172.54 136.48V181H1167.02V175.96C1165.74 177.72 1164.12 179.06 1162.16 179.98C1160.2 180.9 1158.04 181.36 1155.68 181.36C1152.6 181.36 1149.84 180.68 1147.4 179.32C1144.96 177.96 1143.04 176.06 1141.64 173.62C1140.28 171.14 1139.6 168.3 1139.6 165.1C1139.6 161.9 1140.28 159.08 1141.64 156.64C1143.04 154.2 1144.96 152.3 1147.4 150.94C1149.84 149.58 1152.6 148.9 1155.68 148.9C1157.96 148.9 1160.06 149.34 1161.98 150.22C1163.9 151.06 1165.5 152.32 1166.78 154V136.48H1172.54ZM1156.16 176.32C1158.16 176.32 1159.98 175.86 1161.62 174.94C1163.26 173.98 1164.54 172.66 1165.46 170.98C1166.38 169.26 1166.84 167.3 1166.84 165.1C1166.84 162.9 1166.38 160.96 1165.46 159.28C1164.54 157.56 1163.26 156.24 1161.62 155.32C1159.98 154.4 1158.16 153.94 1156.16 153.94C1154.12 153.94 1152.28 154.4 1150.64 155.32C1149.04 156.24 1147.76 157.56 1146.8 159.28C1145.88 160.96 1145.42 162.9 1145.42 165.1C1145.42 167.3 1145.88 169.26 1146.8 170.98C1147.76 172.66 1149.04 173.98 1150.64 174.94C1152.28 175.86 1154.12 176.32 1156.16 176.32ZM1195.02 148.9C1199.42 148.9 1202.78 149.98 1205.1 152.14C1207.46 154.3 1208.64 157.52 1208.64 161.8V181H1203.18V176.8C1202.22 178.28 1200.84 179.42 1199.04 180.22C1197.28 180.98 1195.18 181.36 1192.74 181.36C1189.18 181.36 1186.32 180.5 1184.16 178.78C1182.04 177.06 1180.98 174.8 1180.98 172C1180.98 169.2 1182 166.96 1184.04 165.28C1186.08 163.56 1189.32 162.7 1193.76 162.7H1202.88V161.56C1202.88 159.08 1202.16 157.18 1200.72 155.86C1199.28 154.54 1197.16 153.88 1194.36 153.88C1192.48 153.88 1190.64 154.2 1188.84 154.84C1187.04 155.44 1185.52 156.26 1184.28 157.3L1181.88 152.98C1183.52 151.66 1185.48 150.66 1187.76 149.98C1190.04 149.26 1192.46 148.9 1195.02 148.9ZM1193.7 176.92C1195.9 176.92 1197.8 176.44 1199.4 175.48C1201 174.48 1202.16 173.08 1202.88 171.28V166.84H1194C1189.12 166.84 1186.68 168.48 1186.68 171.76C1186.68 173.36 1187.3 174.62 1188.54 175.54C1189.78 176.46 1191.5 176.92 1193.7 176.92ZM1242.25 144.22V158.86H1263.31V164.02H1242.25V181H1236.25V139H1265.89V144.22H1242.25ZM1292.65 181.48C1288.45 181.48 1284.65 180.56 1281.25 178.72C1277.89 176.84 1275.25 174.28 1273.33 171.04C1271.41 167.76 1270.45 164.08 1270.45 160C1270.45 155.92 1271.41 152.26 1273.33 149.02C1275.25 145.74 1277.91 143.18 1281.31 141.34C1284.71 139.46 1288.51 138.52 1292.71 138.52C1295.99 138.52 1298.99 139.08 1301.71 140.2C1304.43 141.28 1306.75 142.9 1308.67 145.06L1304.77 148.84C1301.61 145.52 1297.67 143.86 1292.95 143.86C1289.83 143.86 1287.01 144.56 1284.49 145.96C1281.97 147.36 1279.99 149.3 1278.55 151.78C1277.15 154.22 1276.45 156.96 1276.45 160C1276.45 163.04 1277.15 165.8 1278.55 168.28C1279.99 170.72 1281.97 172.64 1284.49 174.04C1287.01 175.44 1289.83 176.14 1292.95 176.14C1297.63 176.14 1301.57 174.46 1304.77 171.1L1308.67 174.88C1306.75 177.04 1304.41 178.68 1301.65 179.8C1298.93 180.92 1295.93 181.48 1292.65 181.48ZM1327.56 148.9C1331.96 148.9 1335.32 149.98 1337.64 152.14C1340 154.3 1341.18 157.52 1341.18 161.8V181H1335.72V176.8C1334.76 178.28 1333.38 179.42 1331.58 180.22C1329.82 180.98 1327.72 181.36 1325.28 181.36C1321.72 181.36 1318.86 180.5 1316.7 178.78C1314.58 177.06 1313.52 174.8 1313.52 172C1313.52 169.2 1314.54 166.96 1316.58 165.28C1318.62 163.56 1321.86 162.7 1326.3 162.7H1335.42V161.56C1335.42 159.08 1334.7 157.18 1333.26 155.86C1331.82 154.54 1329.7 153.88 1326.9 153.88C1325.02 153.88 1323.18 154.2 1321.38 154.84C1319.58 155.44 1318.06 156.26 1316.82 157.3L1314.42 152.98C1316.06 151.66 1318.02 150.66 1320.3 149.98C1322.58 149.26 1325 148.9 1327.56 148.9ZM1326.24 176.92C1328.44 176.92 1330.34 176.44 1331.94 175.48C1333.54 174.48 1334.7 173.08 1335.42 171.28V166.84H1326.54C1321.66 166.84 1319.22 168.48 1319.22 171.76C1319.22 173.36 1319.84 174.62 1321.08 175.54C1322.32 176.46 1324.04 176.92 1326.24 176.92ZM1391.62 148.9C1395.62 148.9 1398.78 150.06 1401.1 152.38C1403.46 154.7 1404.64 158.14 1404.64 162.7V181H1398.88V163.36C1398.88 160.28 1398.16 157.96 1396.72 156.4C1395.32 154.84 1393.3 154.06 1390.66 154.06C1387.74 154.06 1385.42 154.98 1383.7 156.82C1381.98 158.62 1381.12 161.22 1381.12 164.62V181H1375.36V163.36C1375.36 160.28 1374.64 157.96 1373.2 156.4C1371.8 154.84 1369.78 154.06 1367.14 154.06C1364.22 154.06 1361.9 154.98 1360.18 156.82C1358.46 158.62 1357.6 161.22 1357.6 164.62V181H1351.84V149.2H1357.36V153.94C1358.52 152.3 1360.04 151.06 1361.92 150.22C1363.8 149.34 1365.94 148.9 1368.34 148.9C1370.82 148.9 1373.02 149.4 1374.94 150.4C1376.86 151.4 1378.34 152.86 1379.38 154.78C1380.58 152.94 1382.24 151.5 1384.36 150.46C1386.52 149.42 1388.94 148.9 1391.62 148.9ZM1426.82 148.9C1431.22 148.9 1434.58 149.98 1436.9 152.14C1439.26 154.3 1440.44 157.52 1440.44 161.8V181H1434.98V176.8C1434.02 178.28 1432.64 179.42 1430.84 180.22C1429.08 180.98 1426.98 181.36 1424.54 181.36C1420.98 181.36 1418.12 180.5 1415.96 178.78C1413.84 177.06 1412.78 174.8 1412.78 172C1412.78 169.2 1413.8 166.96 1415.84 165.28C1417.88 163.56 1421.12 162.7 1425.56 162.7H1434.68V161.56C1434.68 159.08 1433.96 157.18 1432.52 155.86C1431.08 154.54 1428.96 153.88 1426.16 153.88C1424.28 153.88 1422.44 154.2 1420.64 154.84C1418.84 155.44 1417.32 156.26 1416.08 157.3L1413.68 152.98C1415.32 151.66 1417.28 150.66 1419.56 149.98C1421.84 149.26 1424.26 148.9 1426.82 148.9ZM1425.5 176.92C1427.7 176.92 1429.6 176.44 1431.2 175.48C1432.8 174.48 1433.96 173.08 1434.68 171.28V166.84H1425.8C1420.92 166.84 1418.48 168.48 1418.48 171.76C1418.48 173.36 1419.1 174.62 1420.34 175.54C1421.58 176.46 1423.3 176.92 1425.5 176.92ZM1456.61 154.54C1457.61 152.7 1459.09 151.3 1461.05 150.34C1463.01 149.38 1465.39 148.9 1468.19 148.9V154.48C1467.87 154.44 1467.43 154.42 1466.87 154.42C1463.75 154.42 1461.29 155.36 1459.49 157.24C1457.73 159.08 1456.85 161.72 1456.85 165.16V181H1451.09V149.2H1456.61V154.54ZM1486.82 148.9C1491.22 148.9 1494.58 149.98 1496.9 152.14C1499.26 154.3 1500.44 157.52 1500.44 161.8V181H1494.98V176.8C1494.02 178.28 1492.64 179.42 1490.84 180.22C1489.08 180.98 1486.98 181.36 1484.54 181.36C1480.98 181.36 1478.12 180.5 1475.96 178.78C1473.84 177.06 1472.78 174.8 1472.78 172C1472.78 169.2 1473.8 166.96 1475.84 165.28C1477.88 163.56 1481.12 162.7 1485.56 162.7H1494.68V161.56C1494.68 159.08 1493.96 157.18 1492.52 155.86C1491.08 154.54 1488.96 153.88 1486.16 153.88C1484.28 153.88 1482.44 154.2 1480.64 154.84C1478.84 155.44 1477.32 156.26 1476.08 157.3L1473.68 152.98C1475.32 151.66 1477.28 150.66 1479.56 149.98C1481.84 149.26 1484.26 148.9 1486.82 148.9ZM1485.5 176.92C1487.7 176.92 1489.6 176.44 1491.2 175.48C1492.8 174.48 1493.96 173.08 1494.68 171.28V166.84H1485.8C1480.92 166.84 1478.48 168.48 1478.48 171.76C1478.48 173.36 1479.1 174.62 1480.34 175.54C1481.58 176.46 1483.3 176.92 1485.5 176.92ZM1516.5 167.74C1516.5 166.14 1516.76 164.74 1517.28 163.54C1517.84 162.3 1518.5 161.26 1519.26 160.42C1520.06 159.58 1521.1 158.58 1522.38 157.42C1523.98 156.02 1525.16 154.82 1525.92 153.82C1526.68 152.78 1527.06 151.54 1527.06 150.1C1527.06 148.14 1526.3 146.58 1524.78 145.42C1523.26 144.22 1521.16 143.62 1518.48 143.62C1513.8 143.62 1510.22 145.2 1507.74 148.36L1503.36 145.24C1505.04 143.08 1507.18 141.42 1509.78 140.26C1512.42 139.1 1515.46 138.52 1518.9 138.52C1523.26 138.52 1526.72 139.48 1529.28 141.4C1531.84 143.28 1533.12 145.88 1533.12 149.2C1533.12 150.84 1532.84 152.3 1532.28 153.58C1531.76 154.82 1531.12 155.86 1530.36 156.7C1529.6 157.54 1528.58 158.54 1527.3 159.7C1525.66 161.18 1524.44 162.48 1523.64 163.6C1522.88 164.72 1522.5 166.1 1522.5 167.74H1516.5ZM1519.56 181.36C1518.44 181.36 1517.5 181 1516.74 180.28C1516.02 179.52 1515.66 178.6 1515.66 177.52C1515.66 176.44 1516.02 175.54 1516.74 174.82C1517.5 174.06 1518.44 173.68 1519.56 173.68C1520.68 173.68 1521.6 174.06 1522.32 174.82C1523.04 175.54 1523.4 176.44 1523.4 177.52C1523.4 178.6 1523.02 179.52 1522.26 180.28C1521.54 181 1520.64 181.36 1519.56 181.36Z" fill="#FE4400"/>
</g>
<defs>
<clipPath id="clip0_6_839">
<rect width="1550" height="252" fill="white"/>
</clipPath>
</defs>
</svg>
