<svg width="1200" height="1452" viewBox="0 0 1200 1452" fill="none" xmlns="http://www.w3.org/2000/svg">
<g clip-path="url(#clip0_13_738)">
<rect width="1200" height="1452" fill="white"/>
<rect width="1200" height="195" fill="#15CADB"/>
<path d="M123.292 110.712C123.591 110.712 123.852 110.833 124.076 111.076L126.232 113.4C124.589 115.304 122.592 116.788 120.24 117.852C117.907 118.916 115.079 119.448 111.756 119.448C108.881 119.448 106.268 118.953 103.916 117.964C101.564 116.956 99.5573 115.556 97.896 113.764C96.2347 111.953 94.9467 109.788 94.032 107.268C93.1173 104.748 92.66 101.976 92.66 98.952C92.66 95.928 93.136 93.156 94.088 90.636C95.04 88.116 96.3747 85.9507 98.092 84.14C99.828 82.3293 101.9 80.9293 104.308 79.94C106.716 78.932 109.376 78.428 112.288 78.428C115.144 78.428 117.664 78.8853 119.848 79.8C122.032 80.7147 123.955 81.956 125.616 83.524L123.824 86.016C123.712 86.2027 123.563 86.3613 123.376 86.492C123.208 86.604 122.975 86.66 122.676 86.66C122.34 86.66 121.929 86.4827 121.444 86.128C120.959 85.7547 120.324 85.344 119.54 84.896C118.756 84.448 117.776 84.0467 116.6 83.692C115.424 83.3187 113.977 83.132 112.26 83.132C110.188 83.132 108.293 83.496 106.576 84.224C104.859 84.9333 103.375 85.9693 102.124 87.332C100.892 88.6947 99.9307 90.356 99.24 92.316C98.5493 94.276 98.204 96.488 98.204 98.952C98.204 101.453 98.5587 103.684 99.268 105.644C99.996 107.604 100.976 109.265 102.208 110.628C103.459 111.972 104.924 112.999 106.604 113.708C108.303 114.417 110.132 114.772 112.092 114.772C113.287 114.772 114.36 114.707 115.312 114.576C116.283 114.427 117.169 114.203 117.972 113.904C118.793 113.605 119.549 113.232 120.24 112.784C120.949 112.317 121.649 111.767 122.34 111.132C122.657 110.852 122.975 110.712 123.292 110.712ZM142.763 90.188C144.835 90.188 146.702 90.5333 148.363 91.224C150.025 91.9147 151.443 92.8947 152.619 94.164C153.795 95.4333 154.691 96.9733 155.307 98.784C155.942 100.576 156.259 102.583 156.259 104.804C156.259 107.044 155.942 109.06 155.307 110.852C154.691 112.644 153.795 114.175 152.619 115.444C151.443 116.713 150.025 117.693 148.363 118.384C146.702 119.056 144.835 119.392 142.763 119.392C140.673 119.392 138.787 119.056 137.107 118.384C135.446 117.693 134.027 116.713 132.851 115.444C131.675 114.175 130.77 112.644 130.135 110.852C129.519 109.06 129.211 107.044 129.211 104.804C129.211 102.583 129.519 100.576 130.135 98.784C130.77 96.9733 131.675 95.4333 132.851 94.164C134.027 92.8947 135.446 91.9147 137.107 91.224C138.787 90.5333 140.673 90.188 142.763 90.188ZM142.763 115.5C145.563 115.5 147.654 114.567 149.035 112.7C150.417 110.815 151.107 108.192 151.107 104.832C151.107 101.453 150.417 98.8213 149.035 96.936C147.654 95.0507 145.563 94.108 142.763 94.108C141.345 94.108 140.103 94.3507 139.039 94.836C137.994 95.3213 137.117 96.0213 136.407 96.936C135.717 97.8507 135.194 98.98 134.839 100.324C134.503 101.649 134.335 103.152 134.335 104.832C134.335 108.192 135.026 110.815 136.407 112.7C137.807 114.567 139.926 115.5 142.763 115.5ZM167.313 96.32C168.209 94.3787 169.31 92.8667 170.617 91.784C171.923 90.6827 173.519 90.132 175.405 90.132C176.002 90.132 176.571 90.1973 177.113 90.328C177.673 90.4587 178.167 90.664 178.597 90.944L178.233 94.668C178.121 95.1347 177.841 95.368 177.393 95.368C177.131 95.368 176.749 95.312 176.245 95.2C175.741 95.088 175.171 95.032 174.537 95.032C173.641 95.032 172.838 95.1627 172.129 95.424C171.438 95.6853 170.813 96.0773 170.253 96.6C169.711 97.104 169.217 97.7387 168.769 98.504C168.339 99.2507 167.947 100.109 167.593 101.08V119H162.581V90.636H165.437C165.978 90.636 166.351 90.7387 166.557 90.944C166.762 91.1493 166.902 91.504 166.977 92.008L167.313 96.32Z" fill="white"/>
<path d="M106.992 267.424L102.942 256.93C102.822 256.618 102.696 256.258 102.564 255.85C102.432 255.43 102.306 254.986 102.186 254.518C101.934 255.49 101.676 256.3 101.412 256.948L97.362 267.424H106.992ZM114.264 277H111.564C111.252 277 111 276.922 110.808 276.766C110.616 276.61 110.472 276.412 110.376 276.172L107.964 269.944H96.39L93.978 276.172C93.906 276.388 93.768 276.58 93.564 276.748C93.36 276.916 93.108 277 92.808 277H90.108L100.422 251.206H103.95L114.264 277ZM116.831 277V258.766H118.757C119.213 258.766 119.495 258.988 119.603 259.432L119.837 261.304C120.509 260.476 121.265 259.798 122.105 259.27C122.945 258.742 123.917 258.478 125.021 258.478C126.245 258.478 127.235 258.82 127.991 259.504C128.759 260.188 129.311 261.112 129.647 262.276C129.911 261.616 130.247 261.046 130.655 260.566C131.075 260.086 131.543 259.69 132.059 259.378C132.575 259.066 133.121 258.838 133.697 258.694C134.285 258.55 134.879 258.478 135.479 258.478C136.439 258.478 137.291 258.634 138.035 258.946C138.791 259.246 139.427 259.69 139.943 260.278C140.471 260.866 140.873 261.592 141.149 262.456C141.425 263.308 141.563 264.286 141.563 265.39V277H138.341V265.39C138.341 263.962 138.029 262.882 137.405 262.15C136.781 261.406 135.881 261.034 134.705 261.034C134.177 261.034 133.673 261.13 133.193 261.322C132.725 261.502 132.311 261.772 131.951 262.132C131.591 262.492 131.303 262.948 131.087 263.5C130.883 264.04 130.781 264.67 130.781 265.39V277H127.559V265.39C127.559 263.926 127.265 262.834 126.677 262.114C126.089 261.394 125.231 261.034 124.103 261.034C123.311 261.034 122.579 261.25 121.907 261.682C121.235 262.102 120.617 262.678 120.053 263.41V277H116.831ZM156.315 268.792C154.839 268.84 153.579 268.96 152.535 269.152C151.503 269.332 150.657 269.572 149.997 269.872C149.349 270.172 148.875 270.526 148.575 270.934C148.287 271.342 148.143 271.798 148.143 272.302C148.143 272.782 148.221 273.196 148.377 273.544C148.533 273.892 148.743 274.18 149.007 274.408C149.283 274.624 149.601 274.786 149.961 274.894C150.333 274.99 150.729 275.038 151.149 275.038C151.713 275.038 152.229 274.984 152.697 274.876C153.165 274.756 153.603 274.588 154.011 274.372C154.431 274.156 154.827 273.898 155.199 273.598C155.583 273.298 155.955 272.956 156.315 272.572V268.792ZM145.965 261.34C146.973 260.368 148.059 259.642 149.223 259.162C150.387 258.682 151.677 258.442 153.093 258.442C154.113 258.442 155.019 258.61 155.811 258.946C156.603 259.282 157.269 259.75 157.809 260.35C158.349 260.95 158.757 261.676 159.033 262.528C159.309 263.38 159.447 264.316 159.447 265.336V277H158.025C157.713 277 157.473 276.952 157.305 276.856C157.137 276.748 157.005 276.544 156.909 276.244L156.549 274.516C156.069 274.96 155.601 275.356 155.145 275.704C154.689 276.04 154.209 276.328 153.705 276.568C153.201 276.796 152.661 276.97 152.085 277.09C151.521 277.222 150.891 277.288 150.195 277.288C149.487 277.288 148.821 277.192 148.197 277C147.573 276.796 147.027 276.496 146.559 276.1C146.103 275.704 145.737 275.206 145.461 274.606C145.197 273.994 145.065 273.274 145.065 272.446C145.065 271.726 145.263 271.036 145.659 270.376C146.055 269.704 146.697 269.11 147.585 268.594C148.473 268.078 149.631 267.658 151.059 267.334C152.487 266.998 154.239 266.806 156.315 266.758V265.336C156.315 263.92 156.009 262.852 155.397 262.132C154.785 261.4 153.891 261.034 152.715 261.034C151.923 261.034 151.257 261.136 150.717 261.34C150.189 261.532 149.727 261.754 149.331 262.006C148.947 262.246 148.611 262.468 148.323 262.672C148.047 262.864 147.771 262.96 147.495 262.96C147.279 262.96 147.093 262.906 146.937 262.798C146.781 262.678 146.649 262.534 146.541 262.366L145.965 261.34ZM167.369 262.42C167.945 261.172 168.653 260.2 169.493 259.504C170.333 258.796 171.359 258.442 172.571 258.442C172.955 258.442 173.321 258.484 173.669 258.568C174.029 258.652 174.347 258.784 174.623 258.964L174.389 261.358C174.317 261.658 174.137 261.808 173.849 261.808C173.681 261.808 173.435 261.772 173.111 261.7C172.787 261.628 172.421 261.592 172.013 261.592C171.437 261.592 170.921 261.676 170.465 261.844C170.021 262.012 169.619 262.264 169.259 262.6C168.911 262.924 168.593 263.332 168.305 263.824C168.029 264.304 167.777 264.856 167.549 265.48V277H164.327V258.766H166.163C166.511 258.766 166.751 258.832 166.883 258.964C167.015 259.096 167.105 259.324 167.153 259.648L167.369 262.42ZM188.906 265.894C188.906 265.15 188.798 264.472 188.582 263.86C188.378 263.236 188.072 262.702 187.664 262.258C187.268 261.802 186.782 261.454 186.206 261.214C185.63 260.962 184.976 260.836 184.244 260.836C182.708 260.836 181.49 261.286 180.59 262.186C179.702 263.074 179.15 264.31 178.934 265.894H188.906ZM191.498 274.444C191.102 274.924 190.628 275.344 190.076 275.704C189.524 276.052 188.93 276.34 188.294 276.568C187.67 276.796 187.022 276.964 186.35 277.072C185.678 277.192 185.012 277.252 184.352 277.252C183.092 277.252 181.928 277.042 180.86 276.622C179.804 276.19 178.886 275.566 178.106 274.75C177.338 273.922 176.738 272.902 176.306 271.69C175.874 270.478 175.658 269.086 175.658 267.514C175.658 266.242 175.85 265.054 176.234 263.95C176.63 262.846 177.194 261.892 177.926 261.088C178.658 260.272 179.552 259.636 180.608 259.18C181.664 258.712 182.852 258.478 184.172 258.478C185.264 258.478 186.272 258.664 187.196 259.036C188.132 259.396 188.936 259.924 189.608 260.62C190.292 261.304 190.826 262.156 191.21 263.176C191.594 264.184 191.786 265.336 191.786 266.632C191.786 267.136 191.732 267.472 191.624 267.64C191.516 267.808 191.312 267.892 191.012 267.892H178.826C178.862 269.044 179.018 270.046 179.294 270.898C179.582 271.75 179.978 272.464 180.482 273.04C180.986 273.604 181.586 274.03 182.282 274.318C182.978 274.594 183.758 274.732 184.622 274.732C185.426 274.732 186.116 274.642 186.692 274.462C187.28 274.27 187.784 274.066 188.204 273.85C188.624 273.634 188.972 273.436 189.248 273.256C189.536 273.064 189.782 272.968 189.986 272.968C190.25 272.968 190.454 273.07 190.598 273.274L191.498 274.444ZM199.034 250.486V277H195.83V250.486H199.034ZM211.915 258.478C213.247 258.478 214.447 258.7 215.515 259.144C216.583 259.588 217.495 260.218 218.251 261.034C219.007 261.85 219.583 262.84 219.979 264.004C220.387 265.156 220.591 266.446 220.591 267.874C220.591 269.314 220.387 270.61 219.979 271.762C219.583 272.914 219.007 273.898 218.251 274.714C217.495 275.53 216.583 276.16 215.515 276.604C214.447 277.036 213.247 277.252 211.915 277.252C210.571 277.252 209.359 277.036 208.279 276.604C207.211 276.16 206.299 275.53 205.543 274.714C204.787 273.898 204.205 272.914 203.797 271.762C203.401 270.61 203.203 269.314 203.203 267.874C203.203 266.446 203.401 265.156 203.797 264.004C204.205 262.84 204.787 261.85 205.543 261.034C206.299 260.218 207.211 259.588 208.279 259.144C209.359 258.7 210.571 258.478 211.915 258.478ZM211.915 274.75C213.715 274.75 215.059 274.15 215.947 272.95C216.835 271.738 217.279 270.052 217.279 267.892C217.279 265.72 216.835 264.028 215.947 262.816C215.059 261.604 213.715 260.998 211.915 260.998C211.003 260.998 210.205 261.154 209.521 261.466C208.849 261.778 208.285 262.228 207.829 262.816C207.385 263.404 207.049 264.13 206.821 264.994C206.605 265.846 206.497 266.812 206.497 267.892C206.497 270.052 206.941 271.738 207.829 272.95C208.729 274.15 210.091 274.75 211.915 274.75Z" fill="#2C3131"/>
<g filter="url(#filter0_d_13_738)">
<rect x="90" y="305" width="183.759" height="162.219" rx="8" fill="#FDE014"/>
</g>
<g filter="url(#filter1_d_13_738)">
<rect x="296.579" y="305" width="189.284" height="162.219" rx="8" fill="#FDE014" fill-opacity="0.8" shape-rendering="crispEdges"/>
</g>
<g filter="url(#filter2_d_13_738)">
<rect x="508.682" y="305" width="183.759" height="162.219" rx="8" fill="#FDE014" fill-opacity="0.6" shape-rendering="crispEdges"/>
</g>
<g filter="url(#filter3_d_13_738)">
<rect x="715.26" y="305" width="184.96" height="162.14" rx="8" fill="#FDE014" fill-opacity="0.4" shape-rendering="crispEdges"/>
</g>
<g filter="url(#filter4_d_13_738)">
<rect x="923.04" y="305" width="184.96" height="162.219" rx="8" fill="#FDE014" fill-opacity="0.2" shape-rendering="crispEdges"/>
</g>
<path d="M114.264 542.206L103.752 568H100.62L90.108 542.206H92.898C93.21 542.206 93.462 542.284 93.654 542.44C93.846 542.596 93.99 542.794 94.086 543.034L101.358 561.232C101.514 561.64 101.664 562.084 101.808 562.564C101.964 563.044 102.102 563.548 102.222 564.076C102.342 563.548 102.468 563.044 102.6 562.564C102.732 562.084 102.876 561.64 103.032 561.232L110.286 543.034C110.358 542.83 110.496 542.644 110.7 542.476C110.916 542.296 111.174 542.206 111.474 542.206H114.264ZM126.398 556.894C126.398 556.15 126.29 555.472 126.074 554.86C125.87 554.236 125.564 553.702 125.156 553.258C124.76 552.802 124.274 552.454 123.698 552.214C123.122 551.962 122.468 551.836 121.736 551.836C120.2 551.836 118.982 552.286 118.082 553.186C117.194 554.074 116.642 555.31 116.426 556.894H126.398ZM128.99 565.444C128.594 565.924 128.12 566.344 127.568 566.704C127.016 567.052 126.422 567.34 125.786 567.568C125.162 567.796 124.514 567.964 123.842 568.072C123.17 568.192 122.504 568.252 121.844 568.252C120.584 568.252 119.42 568.042 118.352 567.622C117.296 567.19 116.378 566.566 115.598 565.75C114.83 564.922 114.23 563.902 113.798 562.69C113.366 561.478 113.15 560.086 113.15 558.514C113.15 557.242 113.342 556.054 113.726 554.95C114.122 553.846 114.686 552.892 115.418 552.088C116.15 551.272 117.044 550.636 118.1 550.18C119.156 549.712 120.344 549.478 121.664 549.478C122.756 549.478 123.764 549.664 124.688 550.036C125.624 550.396 126.428 550.924 127.1 551.62C127.784 552.304 128.318 553.156 128.702 554.176C129.086 555.184 129.278 556.336 129.278 557.632C129.278 558.136 129.224 558.472 129.116 558.64C129.008 558.808 128.804 558.892 128.504 558.892H116.318C116.354 560.044 116.51 561.046 116.786 561.898C117.074 562.75 117.47 563.464 117.974 564.04C118.478 564.604 119.078 565.03 119.774 565.318C120.47 565.594 121.25 565.732 122.114 565.732C122.918 565.732 123.608 565.642 124.184 565.462C124.772 565.27 125.276 565.066 125.696 564.85C126.116 564.634 126.464 564.436 126.74 564.256C127.028 564.064 127.274 563.968 127.478 563.968C127.742 563.968 127.946 564.07 128.09 564.274L128.99 565.444ZM136.256 553.42C136.832 552.172 137.54 551.2 138.38 550.504C139.22 549.796 140.246 549.442 141.458 549.442C141.842 549.442 142.208 549.484 142.556 549.568C142.916 549.652 143.234 549.784 143.51 549.964L143.276 552.358C143.204 552.658 143.024 552.808 142.736 552.808C142.568 552.808 142.322 552.772 141.998 552.7C141.674 552.628 141.308 552.592 140.9 552.592C140.324 552.592 139.808 552.676 139.352 552.844C138.908 553.012 138.506 553.264 138.146 553.6C137.798 553.924 137.48 554.332 137.192 554.824C136.916 555.304 136.664 555.856 136.436 556.48V568H133.214V549.766H135.05C135.398 549.766 135.638 549.832 135.77 549.964C135.902 550.096 135.992 550.324 136.04 550.648L136.256 553.42ZM146.327 568V549.766H148.253C148.709 549.766 148.991 549.988 149.099 550.432L149.333 552.304C150.005 551.476 150.761 550.798 151.601 550.27C152.441 549.742 153.413 549.478 154.517 549.478C155.741 549.478 156.731 549.82 157.487 550.504C158.255 551.188 158.807 552.112 159.143 553.276C159.407 552.616 159.743 552.046 160.151 551.566C160.571 551.086 161.039 550.69 161.555 550.378C162.071 550.066 162.617 549.838 163.193 549.694C163.781 549.55 164.375 549.478 164.975 549.478C165.935 549.478 166.787 549.634 167.531 549.946C168.287 550.246 168.923 550.69 169.439 551.278C169.967 551.866 170.369 552.592 170.645 553.456C170.921 554.308 171.059 555.286 171.059 556.39V568H167.837V556.39C167.837 554.962 167.525 553.882 166.901 553.15C166.277 552.406 165.377 552.034 164.201 552.034C163.673 552.034 163.169 552.13 162.689 552.322C162.221 552.502 161.807 552.772 161.447 553.132C161.087 553.492 160.799 553.948 160.583 554.5C160.379 555.04 160.277 555.67 160.277 556.39V568H157.055V556.39C157.055 554.926 156.761 553.834 156.173 553.114C155.585 552.394 154.727 552.034 153.599 552.034C152.807 552.034 152.075 552.25 151.403 552.682C150.731 553.102 150.113 553.678 149.549 554.41V568H146.327ZM188.133 556.894C188.133 556.15 188.025 555.472 187.809 554.86C187.605 554.236 187.299 553.702 186.891 553.258C186.495 552.802 186.009 552.454 185.433 552.214C184.857 551.962 184.203 551.836 183.471 551.836C181.935 551.836 180.717 552.286 179.817 553.186C178.929 554.074 178.377 555.31 178.161 556.894H188.133ZM190.725 565.444C190.329 565.924 189.855 566.344 189.303 566.704C188.751 567.052 188.157 567.34 187.521 567.568C186.897 567.796 186.249 567.964 185.577 568.072C184.905 568.192 184.239 568.252 183.579 568.252C182.319 568.252 181.155 568.042 180.087 567.622C179.031 567.19 178.113 566.566 177.333 565.75C176.565 564.922 175.965 563.902 175.533 562.69C175.101 561.478 174.885 560.086 174.885 558.514C174.885 557.242 175.077 556.054 175.461 554.95C175.857 553.846 176.421 552.892 177.153 552.088C177.885 551.272 178.779 550.636 179.835 550.18C180.891 549.712 182.079 549.478 183.399 549.478C184.491 549.478 185.499 549.664 186.423 550.036C187.359 550.396 188.163 550.924 188.835 551.62C189.519 552.304 190.053 553.156 190.437 554.176C190.821 555.184 191.013 556.336 191.013 557.632C191.013 558.136 190.959 558.472 190.851 558.64C190.743 558.808 190.539 558.892 190.239 558.892H178.053C178.089 560.044 178.245 561.046 178.521 561.898C178.809 562.75 179.205 563.464 179.709 564.04C180.213 564.604 180.813 565.03 181.509 565.318C182.205 565.594 182.985 565.732 183.849 565.732C184.653 565.732 185.343 565.642 185.919 565.462C186.507 565.27 187.011 565.066 187.431 564.85C187.851 564.634 188.199 564.436 188.475 564.256C188.763 564.064 189.009 563.968 189.213 563.968C189.477 563.968 189.681 564.07 189.825 564.274L190.725 565.444ZM198.26 541.486V568H195.056V541.486H198.26ZM206.678 552.196C207.458 551.368 208.322 550.708 209.27 550.216C210.218 549.724 211.31 549.478 212.546 549.478C213.542 549.478 214.418 549.646 215.174 549.982C215.942 550.306 216.578 550.774 217.082 551.386C217.598 551.986 217.988 552.712 218.252 553.564C218.516 554.416 218.648 555.358 218.648 556.39V568H215.426V556.39C215.426 555.01 215.108 553.942 214.472 553.186C213.848 552.418 212.894 552.034 211.61 552.034C210.662 552.034 209.774 552.262 208.946 552.718C208.13 553.174 207.374 553.792 206.678 554.572V568H203.456V541.486H206.678V552.196ZM231.216 549.478C232.548 549.478 233.748 549.7 234.816 550.144C235.884 550.588 236.796 551.218 237.552 552.034C238.308 552.85 238.884 553.84 239.28 555.004C239.688 556.156 239.892 557.446 239.892 558.874C239.892 560.314 239.688 561.61 239.28 562.762C238.884 563.914 238.308 564.898 237.552 565.714C236.796 566.53 235.884 567.16 234.816 567.604C233.748 568.036 232.548 568.252 231.216 568.252C229.872 568.252 228.66 568.036 227.58 567.604C226.512 567.16 225.6 566.53 224.844 565.714C224.088 564.898 223.506 563.914 223.098 562.762C222.702 561.61 222.504 560.314 222.504 558.874C222.504 557.446 222.702 556.156 223.098 555.004C223.506 553.84 224.088 552.85 224.844 552.034C225.6 551.218 226.512 550.588 227.58 550.144C228.66 549.7 229.872 549.478 231.216 549.478ZM231.216 565.75C233.016 565.75 234.36 565.15 235.248 563.95C236.136 562.738 236.58 561.052 236.58 558.892C236.58 556.72 236.136 555.028 235.248 553.816C234.36 552.604 233.016 551.998 231.216 551.998C230.304 551.998 229.506 552.154 228.822 552.466C228.15 552.778 227.586 553.228 227.13 553.816C226.686 554.404 226.35 555.13 226.122 555.994C225.906 556.846 225.798 557.812 225.798 558.892C225.798 561.052 226.242 562.738 227.13 563.95C228.03 565.15 229.392 565.75 231.216 565.75Z" fill="#2C3131"/>
<g filter="url(#filter5_d_13_738)">
<rect x="90" y="596" width="184.12" height="163.084" rx="8" fill="#F41360"/>
</g>
<g filter="url(#filter6_d_13_738)">
<rect x="296.984" y="596" width="189.655" height="163.084" rx="8" fill="#F41360" fill-opacity="0.8" shape-rendering="crispEdges"/>
</g>
<g filter="url(#filter7_d_13_738)">
<rect x="509.504" y="596" width="184.12" height="163.084" rx="8" fill="#F41360" fill-opacity="0.6" shape-rendering="crispEdges"/>
</g>
<g filter="url(#filter8_d_13_738)">
<rect x="716.489" y="596" width="185.323" height="163.662" rx="8" fill="#F41360" fill-opacity="0.4" shape-rendering="crispEdges"/>
</g>
<g filter="url(#filter9_d_13_738)">
<rect x="924.677" y="596" width="185.323" height="163.084" rx="8" fill="#F41360" fill-opacity="0.2" shape-rendering="crispEdges"/>
</g>
<path d="M106.992 850.424L102.942 839.93C102.822 839.618 102.696 839.258 102.564 838.85C102.432 838.43 102.306 837.986 102.186 837.518C101.934 838.49 101.676 839.3 101.412 839.948L97.362 850.424H106.992ZM114.264 860H111.564C111.252 860 111 859.922 110.808 859.766C110.616 859.61 110.472 859.412 110.376 859.172L107.964 852.944H96.39L93.978 859.172C93.906 859.388 93.768 859.58 93.564 859.748C93.36 859.916 93.108 860 92.808 860H90.108L100.422 834.206H103.95L114.264 860ZM129.483 843.134C129.483 843.362 129.441 843.584 129.357 843.8C129.285 844.016 129.183 844.202 129.051 844.358L119.169 857.498H129.141V860H115.407V858.668C115.407 858.512 115.443 858.332 115.515 858.128C115.587 857.912 115.695 857.708 115.839 857.516L125.775 844.286H115.965V841.766H129.483V843.134ZM148.173 841.766V860H146.265C145.809 860 145.521 859.778 145.401 859.334L145.149 857.372C144.357 858.248 143.469 858.956 142.485 859.496C141.501 860.024 140.373 860.288 139.101 860.288C138.105 860.288 137.223 860.126 136.455 859.802C135.699 859.466 135.063 858.998 134.547 858.398C134.031 857.798 133.641 857.072 133.377 856.22C133.125 855.368 132.999 854.426 132.999 853.394V841.766H136.203V853.394C136.203 854.774 136.515 855.842 137.139 856.598C137.775 857.354 138.741 857.732 140.037 857.732C140.985 857.732 141.867 857.51 142.683 857.066C143.511 856.61 144.273 855.986 144.969 855.194V841.766H148.173ZM156.565 833.486V860H153.361V833.486H156.565Z" fill="#2C3131"/>
<g filter="url(#filter10_d_13_738)">
<rect x="90" y="888" width="184.12" height="163.084" rx="8" fill="#15CADB"/>
</g>
<g filter="url(#filter11_d_13_738)">
<rect x="296.984" y="888" width="189.655" height="163.084" rx="8" fill="#15CADB" fill-opacity="0.8" shape-rendering="crispEdges"/>
</g>
<g filter="url(#filter12_d_13_738)">
<rect x="509.504" y="888" width="184.12" height="163.084" rx="8" fill="#15CADB" fill-opacity="0.6" shape-rendering="crispEdges"/>
</g>
<g filter="url(#filter13_d_13_738)">
<rect x="716.489" y="888" width="185.323" height="163.662" rx="8" fill="#15CADB" fill-opacity="0.4" shape-rendering="crispEdges"/>
</g>
<g filter="url(#filter14_d_13_738)">
<rect x="924.677" y="888" width="185.323" height="163.084" rx="8" fill="#15CADB" fill-opacity="0.2" shape-rendering="crispEdges"/>
</g>
<path d="M114.402 1146.67C114.594 1146.67 114.762 1146.75 114.906 1146.91L116.292 1148.4C115.236 1149.62 113.952 1150.58 112.44 1151.26C110.94 1151.95 109.122 1152.29 106.986 1152.29C105.138 1152.29 103.458 1151.97 101.946 1151.33C100.434 1150.69 99.144 1149.79 98.076 1148.63C97.008 1147.47 96.18 1146.08 95.592 1144.46C95.004 1142.84 94.71 1141.06 94.71 1139.11C94.71 1137.17 95.016 1135.39 95.628 1133.77C96.24 1132.15 97.098 1130.75 98.202 1129.59C99.318 1128.43 100.65 1127.53 102.198 1126.89C103.746 1126.24 105.456 1125.92 107.328 1125.92C109.164 1125.92 110.784 1126.21 112.188 1126.8C113.592 1127.39 114.828 1128.19 115.896 1129.19L114.744 1130.8C114.672 1130.92 114.576 1131.02 114.456 1131.1C114.348 1131.17 114.198 1131.21 114.006 1131.21C113.79 1131.21 113.526 1131.1 113.214 1130.87C112.902 1130.63 112.494 1130.36 111.99 1130.08C111.486 1129.79 110.856 1129.53 110.1 1129.3C109.344 1129.06 108.414 1128.94 107.31 1128.94C105.978 1128.94 104.76 1129.18 103.656 1129.64C102.552 1130.1 101.598 1130.77 100.794 1131.64C100.002 1132.52 99.384 1133.59 98.94 1134.85C98.496 1136.11 98.274 1137.53 98.274 1139.11C98.274 1140.72 98.502 1142.15 98.958 1143.41C99.426 1144.67 100.056 1145.74 100.848 1146.62C101.652 1147.48 102.594 1148.14 103.674 1148.6C104.766 1149.05 105.942 1149.28 107.202 1149.28C107.97 1149.28 108.66 1149.24 109.272 1149.16C109.896 1149.06 110.466 1148.92 110.982 1148.72C111.51 1148.53 111.996 1148.29 112.44 1148C112.896 1147.7 113.346 1147.35 113.79 1146.94C113.994 1146.76 114.198 1146.67 114.402 1146.67ZM126.919 1133.48C128.251 1133.48 129.451 1133.7 130.519 1134.14C131.587 1134.59 132.499 1135.22 133.255 1136.03C134.011 1136.85 134.587 1137.84 134.983 1139C135.391 1140.16 135.595 1141.45 135.595 1142.87C135.595 1144.31 135.391 1145.61 134.983 1146.76C134.587 1147.91 134.011 1148.9 133.255 1149.71C132.499 1150.53 131.587 1151.16 130.519 1151.6C129.451 1152.04 128.251 1152.25 126.919 1152.25C125.575 1152.25 124.363 1152.04 123.283 1151.6C122.215 1151.16 121.303 1150.53 120.547 1149.71C119.791 1148.9 119.209 1147.91 118.801 1146.76C118.405 1145.61 118.207 1144.31 118.207 1142.87C118.207 1141.45 118.405 1140.16 118.801 1139C119.209 1137.84 119.791 1136.85 120.547 1136.03C121.303 1135.22 122.215 1134.59 123.283 1134.14C124.363 1133.7 125.575 1133.48 126.919 1133.48ZM126.919 1149.75C128.719 1149.75 130.063 1149.15 130.951 1147.95C131.839 1146.74 132.283 1145.05 132.283 1142.89C132.283 1140.72 131.839 1139.03 130.951 1137.82C130.063 1136.6 128.719 1136 126.919 1136C126.007 1136 125.209 1136.15 124.525 1136.47C123.853 1136.78 123.289 1137.23 122.833 1137.82C122.389 1138.4 122.053 1139.13 121.825 1139.99C121.609 1140.85 121.501 1141.81 121.501 1142.89C121.501 1145.05 121.945 1146.74 122.833 1147.95C123.733 1149.15 125.095 1149.75 126.919 1149.75ZM142.701 1137.42C143.277 1136.17 143.985 1135.2 144.825 1134.5C145.665 1133.8 146.691 1133.44 147.903 1133.44C148.287 1133.44 148.653 1133.48 149.001 1133.57C149.361 1133.65 149.679 1133.78 149.955 1133.96L149.721 1136.36C149.649 1136.66 149.469 1136.81 149.181 1136.81C149.013 1136.81 148.767 1136.77 148.443 1136.7C148.119 1136.63 147.753 1136.59 147.345 1136.59C146.769 1136.59 146.253 1136.68 145.797 1136.84C145.353 1137.01 144.951 1137.26 144.591 1137.6C144.243 1137.92 143.925 1138.33 143.637 1138.82C143.361 1139.3 143.109 1139.86 142.881 1140.48V1152H139.659V1133.77H141.495C141.843 1133.77 142.083 1133.83 142.215 1133.96C142.347 1134.1 142.437 1134.32 142.485 1134.65L142.701 1137.42ZM164.432 1147.61C165.02 1148.4 165.662 1148.96 166.358 1149.28C167.066 1149.61 167.84 1149.77 168.68 1149.77C170.396 1149.77 171.71 1149.16 172.622 1147.95C173.534 1146.74 173.99 1144.93 173.99 1142.53C173.99 1140.3 173.582 1138.66 172.766 1137.62C171.962 1136.56 170.81 1136.03 169.31 1136.03C168.266 1136.03 167.354 1136.27 166.574 1136.75C165.806 1137.23 165.092 1137.91 164.432 1138.79V1147.61ZM164.432 1136.39C165.2 1135.51 166.064 1134.8 167.024 1134.27C167.996 1133.74 169.112 1133.48 170.372 1133.48C171.44 1133.48 172.4 1133.68 173.252 1134.09C174.116 1134.5 174.848 1135.09 175.448 1135.87C176.048 1136.64 176.504 1137.58 176.816 1138.68C177.14 1139.78 177.302 1141.03 177.302 1142.41C177.302 1143.88 177.122 1145.23 176.762 1146.44C176.402 1147.65 175.88 1148.69 175.196 1149.55C174.524 1150.4 173.702 1151.07 172.73 1151.55C171.758 1152.02 170.666 1152.25 169.454 1152.25C168.254 1152.25 167.24 1152.03 166.412 1151.59C165.596 1151.13 164.882 1150.49 164.27 1149.66L164.108 1151.32C164.012 1151.77 163.736 1152 163.28 1152H161.21V1125.49H164.432V1136.39ZM191.236 1143.79C189.76 1143.84 188.5 1143.96 187.456 1144.15C186.424 1144.33 185.578 1144.57 184.918 1144.87C184.27 1145.17 183.796 1145.53 183.496 1145.93C183.208 1146.34 183.064 1146.8 183.064 1147.3C183.064 1147.78 183.142 1148.2 183.298 1148.54C183.454 1148.89 183.664 1149.18 183.928 1149.41C184.204 1149.62 184.522 1149.79 184.882 1149.89C185.254 1149.99 185.65 1150.04 186.07 1150.04C186.634 1150.04 187.15 1149.98 187.618 1149.88C188.086 1149.76 188.524 1149.59 188.932 1149.37C189.352 1149.16 189.748 1148.9 190.12 1148.6C190.504 1148.3 190.876 1147.96 191.236 1147.57V1143.79ZM180.886 1136.34C181.894 1135.37 182.98 1134.64 184.144 1134.16C185.308 1133.68 186.598 1133.44 188.014 1133.44C189.034 1133.44 189.94 1133.61 190.732 1133.95C191.524 1134.28 192.19 1134.75 192.73 1135.35C193.27 1135.95 193.678 1136.68 193.954 1137.53C194.23 1138.38 194.368 1139.32 194.368 1140.34V1152H192.946C192.634 1152 192.394 1151.95 192.226 1151.86C192.058 1151.75 191.926 1151.54 191.83 1151.24L191.47 1149.52C190.99 1149.96 190.522 1150.36 190.066 1150.7C189.61 1151.04 189.13 1151.33 188.626 1151.57C188.122 1151.8 187.582 1151.97 187.006 1152.09C186.442 1152.22 185.812 1152.29 185.116 1152.29C184.408 1152.29 183.742 1152.19 183.118 1152C182.494 1151.8 181.948 1151.5 181.48 1151.1C181.024 1150.7 180.658 1150.21 180.382 1149.61C180.118 1148.99 179.986 1148.27 179.986 1147.45C179.986 1146.73 180.184 1146.04 180.58 1145.38C180.976 1144.7 181.618 1144.11 182.506 1143.59C183.394 1143.08 184.552 1142.66 185.98 1142.33C187.408 1142 189.16 1141.81 191.236 1141.76V1140.34C191.236 1138.92 190.93 1137.85 190.318 1137.13C189.706 1136.4 188.812 1136.03 187.636 1136.03C186.844 1136.03 186.178 1136.14 185.638 1136.34C185.11 1136.53 184.648 1136.75 184.252 1137.01C183.868 1137.25 183.532 1137.47 183.244 1137.67C182.968 1137.86 182.692 1137.96 182.416 1137.96C182.2 1137.96 182.014 1137.91 181.858 1137.8C181.702 1137.68 181.57 1137.53 181.462 1137.37L180.886 1136.34ZM209.869 1136.77C209.725 1137.04 209.503 1137.17 209.203 1137.17C209.023 1137.17 208.819 1137.1 208.591 1136.97C208.363 1136.84 208.081 1136.69 207.745 1136.54C207.421 1136.37 207.031 1136.22 206.575 1136.09C206.119 1135.94 205.579 1135.87 204.955 1135.87C204.415 1135.87 203.929 1135.94 203.497 1136.09C203.065 1136.22 202.693 1136.41 202.381 1136.65C202.081 1136.89 201.847 1137.17 201.679 1137.49C201.523 1137.8 201.445 1138.15 201.445 1138.52C201.445 1138.99 201.577 1139.38 201.841 1139.69C202.117 1140 202.477 1140.27 202.921 1140.5C203.365 1140.73 203.869 1140.93 204.433 1141.11C204.997 1141.28 205.573 1141.46 206.161 1141.67C206.761 1141.86 207.343 1142.08 207.907 1142.32C208.471 1142.56 208.975 1142.86 209.419 1143.22C209.863 1143.58 210.217 1144.02 210.481 1144.55C210.757 1145.06 210.895 1145.69 210.895 1146.42C210.895 1147.26 210.745 1148.04 210.445 1148.76C210.145 1149.47 209.701 1150.09 209.113 1150.61C208.525 1151.13 207.805 1151.54 206.953 1151.84C206.101 1152.14 205.117 1152.29 204.001 1152.29C202.729 1152.29 201.577 1152.08 200.545 1151.68C199.513 1151.26 198.637 1150.72 197.917 1150.07L198.673 1148.85C198.769 1148.69 198.883 1148.57 199.015 1148.49C199.147 1148.41 199.315 1148.36 199.519 1148.36C199.735 1148.36 199.963 1148.45 200.203 1148.62C200.443 1148.78 200.731 1148.97 201.067 1149.17C201.415 1149.38 201.835 1149.56 202.327 1149.73C202.819 1149.9 203.431 1149.98 204.163 1149.98C204.787 1149.98 205.333 1149.91 205.801 1149.75C206.269 1149.58 206.659 1149.36 206.971 1149.08C207.283 1148.81 207.511 1148.49 207.655 1148.13C207.811 1147.77 207.889 1147.39 207.889 1146.98C207.889 1146.47 207.751 1146.06 207.475 1145.74C207.211 1145.4 206.857 1145.12 206.413 1144.89C205.969 1144.65 205.459 1144.45 204.883 1144.28C204.319 1144.1 203.737 1143.91 203.137 1143.72C202.549 1143.53 201.967 1143.31 201.391 1143.07C200.827 1142.82 200.323 1142.51 199.879 1142.14C199.435 1141.76 199.075 1141.31 198.799 1140.77C198.535 1140.22 198.403 1139.55 198.403 1138.77C198.403 1138.07 198.547 1137.41 198.835 1136.77C199.123 1136.12 199.543 1135.56 200.095 1135.08C200.647 1134.59 201.325 1134.2 202.129 1133.91C202.933 1133.62 203.851 1133.48 204.883 1133.48C206.083 1133.48 207.157 1133.67 208.105 1134.05C209.065 1134.43 209.893 1134.94 210.589 1135.6L209.869 1136.77ZM227.027 1140.89C227.027 1140.15 226.919 1139.47 226.703 1138.86C226.499 1138.24 226.193 1137.7 225.785 1137.26C225.389 1136.8 224.903 1136.45 224.327 1136.21C223.751 1135.96 223.097 1135.84 222.365 1135.84C220.829 1135.84 219.611 1136.29 218.711 1137.19C217.823 1138.07 217.271 1139.31 217.055 1140.89H227.027ZM229.619 1149.44C229.223 1149.92 228.749 1150.34 228.197 1150.7C227.645 1151.05 227.051 1151.34 226.415 1151.57C225.791 1151.8 225.143 1151.96 224.471 1152.07C223.799 1152.19 223.133 1152.25 222.473 1152.25C221.213 1152.25 220.049 1152.04 218.981 1151.62C217.925 1151.19 217.007 1150.57 216.227 1149.75C215.459 1148.92 214.859 1147.9 214.427 1146.69C213.995 1145.48 213.779 1144.09 213.779 1142.51C213.779 1141.24 213.971 1140.05 214.355 1138.95C214.751 1137.85 215.315 1136.89 216.047 1136.09C216.779 1135.27 217.673 1134.64 218.729 1134.18C219.785 1133.71 220.973 1133.48 222.293 1133.48C223.385 1133.48 224.393 1133.66 225.317 1134.04C226.253 1134.4 227.057 1134.92 227.729 1135.62C228.413 1136.3 228.947 1137.16 229.331 1138.18C229.715 1139.18 229.907 1140.34 229.907 1141.63C229.907 1142.14 229.853 1142.47 229.745 1142.64C229.637 1142.81 229.433 1142.89 229.133 1142.89H216.947C216.983 1144.04 217.139 1145.05 217.415 1145.9C217.703 1146.75 218.099 1147.46 218.603 1148.04C219.107 1148.6 219.707 1149.03 220.403 1149.32C221.099 1149.59 221.879 1149.73 222.743 1149.73C223.547 1149.73 224.237 1149.64 224.813 1149.46C225.401 1149.27 225.905 1149.07 226.325 1148.85C226.745 1148.63 227.093 1148.44 227.369 1148.26C227.657 1148.06 227.903 1147.97 228.107 1147.97C228.371 1147.97 228.575 1148.07 228.719 1148.27L229.619 1149.44Z" fill="#2C3131"/>
<g filter="url(#filter15_d_13_738)">
<rect x="93" y="1180" width="153" height="134.98" rx="8" fill="#2C3131"/>
</g>
<g filter="url(#filter16_d_13_738)">
<rect x="266" y="1180" width="154" height="134.98" rx="8" fill="#626262"/>
</g>
<g filter="url(#filter17_d_13_738)">
<rect x="440" y="1180" width="153" height="134.98" rx="8" fill="#A9A9A9"/>
</g>
<g filter="url(#filter18_d_13_738)">
<rect x="613" y="1180" width="153" height="135" rx="8" fill="#CACACA"/>
</g>
<g filter="url(#filter19_d_13_738)">
<rect x="786" y="1180" width="154" height="134.98" rx="8" fill="#E9E9E9"/>
</g>
<g filter="url(#filter20_d_13_738)">
<rect x="960" y="1180" width="152" height="135" rx="8" fill="white"/>
<rect x="960.5" y="1180.5" width="151" height="134" rx="7.5" stroke="#E9E9E9"/>
</g>
</g>
<defs>
<filter id="filter0_d_13_738" x="75" y="300" width="213.759" height="192.219" filterUnits="userSpaceOnUse" color-interpolation-filters="sRGB">
<feFlood flood-opacity="0" result="BackgroundImageFix"/>
<feColorMatrix in="SourceAlpha" type="matrix" values="0 0 0 0 0 0 0 0 0 0 0 0 0 0 0 0 0 0 127 0" result="hardAlpha"/>
<feOffset dy="10"/>
<feGaussianBlur stdDeviation="7.5"/>
<feComposite in2="hardAlpha" operator="out"/>
<feColorMatrix type="matrix" values="0 0 0 0 0 0 0 0 0 0 0 0 0 0 0 0 0 0 0.1 0"/>
<feBlend mode="normal" in2="BackgroundImageFix" result="effect1_dropShadow_13_738"/>
<feBlend mode="normal" in="SourceGraphic" in2="effect1_dropShadow_13_738" result="shape"/>
</filter>
<filter id="filter1_d_13_738" x="281.579" y="300" width="219.284" height="192.219" filterUnits="userSpaceOnUse" color-interpolation-filters="sRGB">
<feFlood flood-opacity="0" result="BackgroundImageFix"/>
<feColorMatrix in="SourceAlpha" type="matrix" values="0 0 0 0 0 0 0 0 0 0 0 0 0 0 0 0 0 0 127 0" result="hardAlpha"/>
<feOffset dy="10"/>
<feGaussianBlur stdDeviation="7.5"/>
<feComposite in2="hardAlpha" operator="out"/>
<feColorMatrix type="matrix" values="0 0 0 0 0 0 0 0 0 0 0 0 0 0 0 0 0 0 0.1 0"/>
<feBlend mode="normal" in2="BackgroundImageFix" result="effect1_dropShadow_13_738"/>
<feBlend mode="normal" in="SourceGraphic" in2="effect1_dropShadow_13_738" result="shape"/>
</filter>
<filter id="filter2_d_13_738" x="493.682" y="300" width="213.759" height="192.219" filterUnits="userSpaceOnUse" color-interpolation-filters="sRGB">
<feFlood flood-opacity="0" result="BackgroundImageFix"/>
<feColorMatrix in="SourceAlpha" type="matrix" values="0 0 0 0 0 0 0 0 0 0 0 0 0 0 0 0 0 0 127 0" result="hardAlpha"/>
<feOffset dy="10"/>
<feGaussianBlur stdDeviation="7.5"/>
<feComposite in2="hardAlpha" operator="out"/>
<feColorMatrix type="matrix" values="0 0 0 0 0 0 0 0 0 0 0 0 0 0 0 0 0 0 0.1 0"/>
<feBlend mode="normal" in2="BackgroundImageFix" result="effect1_dropShadow_13_738"/>
<feBlend mode="normal" in="SourceGraphic" in2="effect1_dropShadow_13_738" result="shape"/>
</filter>
<filter id="filter3_d_13_738" x="700.26" y="300" width="214.96" height="192.14" filterUnits="userSpaceOnUse" color-interpolation-filters="sRGB">
<feFlood flood-opacity="0" result="BackgroundImageFix"/>
<feColorMatrix in="SourceAlpha" type="matrix" values="0 0 0 0 0 0 0 0 0 0 0 0 0 0 0 0 0 0 127 0" result="hardAlpha"/>
<feOffset dy="10"/>
<feGaussianBlur stdDeviation="7.5"/>
<feComposite in2="hardAlpha" operator="out"/>
<feColorMatrix type="matrix" values="0 0 0 0 0 0 0 0 0 0 0 0 0 0 0 0 0 0 0.1 0"/>
<feBlend mode="normal" in2="BackgroundImageFix" result="effect1_dropShadow_13_738"/>
<feBlend mode="normal" in="SourceGraphic" in2="effect1_dropShadow_13_738" result="shape"/>
</filter>
<filter id="filter4_d_13_738" x="908.04" y="300" width="214.96" height="192.219" filterUnits="userSpaceOnUse" color-interpolation-filters="sRGB">
<feFlood flood-opacity="0" result="BackgroundImageFix"/>
<feColorMatrix in="SourceAlpha" type="matrix" values="0 0 0 0 0 0 0 0 0 0 0 0 0 0 0 0 0 0 127 0" result="hardAlpha"/>
<feOffset dy="10"/>
<feGaussianBlur stdDeviation="7.5"/>
<feComposite in2="hardAlpha" operator="out"/>
<feColorMatrix type="matrix" values="0 0 0 0 0 0 0 0 0 0 0 0 0 0 0 0 0 0 0.1 0"/>
<feBlend mode="normal" in2="BackgroundImageFix" result="effect1_dropShadow_13_738"/>
<feBlend mode="normal" in="SourceGraphic" in2="effect1_dropShadow_13_738" result="shape"/>
</filter>
<filter id="filter5_d_13_738" x="75" y="591" width="214.12" height="193.084" filterUnits="userSpaceOnUse" color-interpolation-filters="sRGB">
<feFlood flood-opacity="0" result="BackgroundImageFix"/>
<feColorMatrix in="SourceAlpha" type="matrix" values="0 0 0 0 0 0 0 0 0 0 0 0 0 0 0 0 0 0 127 0" result="hardAlpha"/>
<feOffset dy="10"/>
<feGaussianBlur stdDeviation="7.5"/>
<feComposite in2="hardAlpha" operator="out"/>
<feColorMatrix type="matrix" values="0 0 0 0 0 0 0 0 0 0 0 0 0 0 0 0 0 0 0.1 0"/>
<feBlend mode="normal" in2="BackgroundImageFix" result="effect1_dropShadow_13_738"/>
<feBlend mode="normal" in="SourceGraphic" in2="effect1_dropShadow_13_738" result="shape"/>
</filter>
<filter id="filter6_d_13_738" x="281.984" y="591" width="219.656" height="193.084" filterUnits="userSpaceOnUse" color-interpolation-filters="sRGB">
<feFlood flood-opacity="0" result="BackgroundImageFix"/>
<feColorMatrix in="SourceAlpha" type="matrix" values="0 0 0 0 0 0 0 0 0 0 0 0 0 0 0 0 0 0 127 0" result="hardAlpha"/>
<feOffset dy="10"/>
<feGaussianBlur stdDeviation="7.5"/>
<feComposite in2="hardAlpha" operator="out"/>
<feColorMatrix type="matrix" values="0 0 0 0 0 0 0 0 0 0 0 0 0 0 0 0 0 0 0.1 0"/>
<feBlend mode="normal" in2="BackgroundImageFix" result="effect1_dropShadow_13_738"/>
<feBlend mode="normal" in="SourceGraphic" in2="effect1_dropShadow_13_738" result="shape"/>
</filter>
<filter id="filter7_d_13_738" x="494.504" y="591" width="214.12" height="193.084" filterUnits="userSpaceOnUse" color-interpolation-filters="sRGB">
<feFlood flood-opacity="0" result="BackgroundImageFix"/>
<feColorMatrix in="SourceAlpha" type="matrix" values="0 0 0 0 0 0 0 0 0 0 0 0 0 0 0 0 0 0 127 0" result="hardAlpha"/>
<feOffset dy="10"/>
<feGaussianBlur stdDeviation="7.5"/>
<feComposite in2="hardAlpha" operator="out"/>
<feColorMatrix type="matrix" values="0 0 0 0 0 0 0 0 0 0 0 0 0 0 0 0 0 0 0.1 0"/>
<feBlend mode="normal" in2="BackgroundImageFix" result="effect1_dropShadow_13_738"/>
<feBlend mode="normal" in="SourceGraphic" in2="effect1_dropShadow_13_738" result="shape"/>
</filter>
<filter id="filter8_d_13_738" x="701.489" y="591" width="215.323" height="193.662" filterUnits="userSpaceOnUse" color-interpolation-filters="sRGB">
<feFlood flood-opacity="0" result="BackgroundImageFix"/>
<feColorMatrix in="SourceAlpha" type="matrix" values="0 0 0 0 0 0 0 0 0 0 0 0 0 0 0 0 0 0 127 0" result="hardAlpha"/>
<feOffset dy="10"/>
<feGaussianBlur stdDeviation="7.5"/>
<feComposite in2="hardAlpha" operator="out"/>
<feColorMatrix type="matrix" values="0 0 0 0 0 0 0 0 0 0 0 0 0 0 0 0 0 0 0.1 0"/>
<feBlend mode="normal" in2="BackgroundImageFix" result="effect1_dropShadow_13_738"/>
<feBlend mode="normal" in="SourceGraphic" in2="effect1_dropShadow_13_738" result="shape"/>
</filter>
<filter id="filter9_d_13_738" x="909.677" y="591" width="215.323" height="193.084" filterUnits="userSpaceOnUse" color-interpolation-filters="sRGB">
<feFlood flood-opacity="0" result="BackgroundImageFix"/>
<feColorMatrix in="SourceAlpha" type="matrix" values="0 0 0 0 0 0 0 0 0 0 0 0 0 0 0 0 0 0 127 0" result="hardAlpha"/>
<feOffset dy="10"/>
<feGaussianBlur stdDeviation="7.5"/>
<feComposite in2="hardAlpha" operator="out"/>
<feColorMatrix type="matrix" values="0 0 0 0 0 0 0 0 0 0 0 0 0 0 0 0 0 0 0.1 0"/>
<feBlend mode="normal" in2="BackgroundImageFix" result="effect1_dropShadow_13_738"/>
<feBlend mode="normal" in="SourceGraphic" in2="effect1_dropShadow_13_738" result="shape"/>
</filter>
<filter id="filter10_d_13_738" x="75" y="883" width="214.12" height="193.084" filterUnits="userSpaceOnUse" color-interpolation-filters="sRGB">
<feFlood flood-opacity="0" result="BackgroundImageFix"/>
<feColorMatrix in="SourceAlpha" type="matrix" values="0 0 0 0 0 0 0 0 0 0 0 0 0 0 0 0 0 0 127 0" result="hardAlpha"/>
<feOffset dy="10"/>
<feGaussianBlur stdDeviation="7.5"/>
<feComposite in2="hardAlpha" operator="out"/>
<feColorMatrix type="matrix" values="0 0 0 0 0 0 0 0 0 0 0 0 0 0 0 0 0 0 0.1 0"/>
<feBlend mode="normal" in2="BackgroundImageFix" result="effect1_dropShadow_13_738"/>
<feBlend mode="normal" in="SourceGraphic" in2="effect1_dropShadow_13_738" result="shape"/>
</filter>
<filter id="filter11_d_13_738" x="281.984" y="883" width="219.656" height="193.084" filterUnits="userSpaceOnUse" color-interpolation-filters="sRGB">
<feFlood flood-opacity="0" result="BackgroundImageFix"/>
<feColorMatrix in="SourceAlpha" type="matrix" values="0 0 0 0 0 0 0 0 0 0 0 0 0 0 0 0 0 0 127 0" result="hardAlpha"/>
<feOffset dy="10"/>
<feGaussianBlur stdDeviation="7.5"/>
<feComposite in2="hardAlpha" operator="out"/>
<feColorMatrix type="matrix" values="0 0 0 0 0 0 0 0 0 0 0 0 0 0 0 0 0 0 0.1 0"/>
<feBlend mode="normal" in2="BackgroundImageFix" result="effect1_dropShadow_13_738"/>
<feBlend mode="normal" in="SourceGraphic" in2="effect1_dropShadow_13_738" result="shape"/>
</filter>
<filter id="filter12_d_13_738" x="494.504" y="883" width="214.12" height="193.084" filterUnits="userSpaceOnUse" color-interpolation-filters="sRGB">
<feFlood flood-opacity="0" result="BackgroundImageFix"/>
<feColorMatrix in="SourceAlpha" type="matrix" values="0 0 0 0 0 0 0 0 0 0 0 0 0 0 0 0 0 0 127 0" result="hardAlpha"/>
<feOffset dy="10"/>
<feGaussianBlur stdDeviation="7.5"/>
<feComposite in2="hardAlpha" operator="out"/>
<feColorMatrix type="matrix" values="0 0 0 0 0 0 0 0 0 0 0 0 0 0 0 0 0 0 0.1 0"/>
<feBlend mode="normal" in2="BackgroundImageFix" result="effect1_dropShadow_13_738"/>
<feBlend mode="normal" in="SourceGraphic" in2="effect1_dropShadow_13_738" result="shape"/>
</filter>
<filter id="filter13_d_13_738" x="701.489" y="883" width="215.323" height="193.662" filterUnits="userSpaceOnUse" color-interpolation-filters="sRGB">
<feFlood flood-opacity="0" result="BackgroundImageFix"/>
<feColorMatrix in="SourceAlpha" type="matrix" values="0 0 0 0 0 0 0 0 0 0 0 0 0 0 0 0 0 0 127 0" result="hardAlpha"/>
<feOffset dy="10"/>
<feGaussianBlur stdDeviation="7.5"/>
<feComposite in2="hardAlpha" operator="out"/>
<feColorMatrix type="matrix" values="0 0 0 0 0 0 0 0 0 0 0 0 0 0 0 0 0 0 0.1 0"/>
<feBlend mode="normal" in2="BackgroundImageFix" result="effect1_dropShadow_13_738"/>
<feBlend mode="normal" in="SourceGraphic" in2="effect1_dropShadow_13_738" result="shape"/>
</filter>
<filter id="filter14_d_13_738" x="909.677" y="883" width="215.323" height="193.084" filterUnits="userSpaceOnUse" color-interpolation-filters="sRGB">
<feFlood flood-opacity="0" result="BackgroundImageFix"/>
<feColorMatrix in="SourceAlpha" type="matrix" values="0 0 0 0 0 0 0 0 0 0 0 0 0 0 0 0 0 0 127 0" result="hardAlpha"/>
<feOffset dy="10"/>
<feGaussianBlur stdDeviation="7.5"/>
<feComposite in2="hardAlpha" operator="out"/>
<feColorMatrix type="matrix" values="0 0 0 0 0 0 0 0 0 0 0 0 0 0 0 0 0 0 0.1 0"/>
<feBlend mode="normal" in2="BackgroundImageFix" result="effect1_dropShadow_13_738"/>
<feBlend mode="normal" in="SourceGraphic" in2="effect1_dropShadow_13_738" result="shape"/>
</filter>
<filter id="filter15_d_13_738" x="78" y="1175" width="183" height="164.98" filterUnits="userSpaceOnUse" color-interpolation-filters="sRGB">
<feFlood flood-opacity="0" result="BackgroundImageFix"/>
<feColorMatrix in="SourceAlpha" type="matrix" values="0 0 0 0 0 0 0 0 0 0 0 0 0 0 0 0 0 0 127 0" result="hardAlpha"/>
<feOffset dy="10"/>
<feGaussianBlur stdDeviation="7.5"/>
<feComposite in2="hardAlpha" operator="out"/>
<feColorMatrix type="matrix" values="0 0 0 0 0 0 0 0 0 0 0 0 0 0 0 0 0 0 0.1 0"/>
<feBlend mode="normal" in2="BackgroundImageFix" result="effect1_dropShadow_13_738"/>
<feBlend mode="normal" in="SourceGraphic" in2="effect1_dropShadow_13_738" result="shape"/>
</filter>
<filter id="filter16_d_13_738" x="251" y="1175" width="184" height="164.98" filterUnits="userSpaceOnUse" color-interpolation-filters="sRGB">
<feFlood flood-opacity="0" result="BackgroundImageFix"/>
<feColorMatrix in="SourceAlpha" type="matrix" values="0 0 0 0 0 0 0 0 0 0 0 0 0 0 0 0 0 0 127 0" result="hardAlpha"/>
<feOffset dy="10"/>
<feGaussianBlur stdDeviation="7.5"/>
<feComposite in2="hardAlpha" operator="out"/>
<feColorMatrix type="matrix" values="0 0 0 0 0 0 0 0 0 0 0 0 0 0 0 0 0 0 0.1 0"/>
<feBlend mode="normal" in2="BackgroundImageFix" result="effect1_dropShadow_13_738"/>
<feBlend mode="normal" in="SourceGraphic" in2="effect1_dropShadow_13_738" result="shape"/>
</filter>
<filter id="filter17_d_13_738" x="425" y="1175" width="183" height="164.98" filterUnits="userSpaceOnUse" color-interpolation-filters="sRGB">
<feFlood flood-opacity="0" result="BackgroundImageFix"/>
<feColorMatrix in="SourceAlpha" type="matrix" values="0 0 0 0 0 0 0 0 0 0 0 0 0 0 0 0 0 0 127 0" result="hardAlpha"/>
<feOffset dy="10"/>
<feGaussianBlur stdDeviation="7.5"/>
<feComposite in2="hardAlpha" operator="out"/>
<feColorMatrix type="matrix" values="0 0 0 0 0 0 0 0 0 0 0 0 0 0 0 0 0 0 0.1 0"/>
<feBlend mode="normal" in2="BackgroundImageFix" result="effect1_dropShadow_13_738"/>
<feBlend mode="normal" in="SourceGraphic" in2="effect1_dropShadow_13_738" result="shape"/>
</filter>
<filter id="filter18_d_13_738" x="598" y="1175" width="183" height="165" filterUnits="userSpaceOnUse" color-interpolation-filters="sRGB">
<feFlood flood-opacity="0" result="BackgroundImageFix"/>
<feColorMatrix in="SourceAlpha" type="matrix" values="0 0 0 0 0 0 0 0 0 0 0 0 0 0 0 0 0 0 127 0" result="hardAlpha"/>
<feOffset dy="10"/>
<feGaussianBlur stdDeviation="7.5"/>
<feComposite in2="hardAlpha" operator="out"/>
<feColorMatrix type="matrix" values="0 0 0 0 0 0 0 0 0 0 0 0 0 0 0 0 0 0 0.1 0"/>
<feBlend mode="normal" in2="BackgroundImageFix" result="effect1_dropShadow_13_738"/>
<feBlend mode="normal" in="SourceGraphic" in2="effect1_dropShadow_13_738" result="shape"/>
</filter>
<filter id="filter19_d_13_738" x="771" y="1175" width="184" height="164.98" filterUnits="userSpaceOnUse" color-interpolation-filters="sRGB">
<feFlood flood-opacity="0" result="BackgroundImageFix"/>
<feColorMatrix in="SourceAlpha" type="matrix" values="0 0 0 0 0 0 0 0 0 0 0 0 0 0 0 0 0 0 127 0" result="hardAlpha"/>
<feOffset dy="10"/>
<feGaussianBlur stdDeviation="7.5"/>
<feComposite in2="hardAlpha" operator="out"/>
<feColorMatrix type="matrix" values="0 0 0 0 0 0 0 0 0 0 0 0 0 0 0 0 0 0 0.1 0"/>
<feBlend mode="normal" in2="BackgroundImageFix" result="effect1_dropShadow_13_738"/>
<feBlend mode="normal" in="SourceGraphic" in2="effect1_dropShadow_13_738" result="shape"/>
</filter>
<filter id="filter20_d_13_738" x="945" y="1175" width="182" height="165" filterUnits="userSpaceOnUse" color-interpolation-filters="sRGB">
<feFlood flood-opacity="0" result="BackgroundImageFix"/>
<feColorMatrix in="SourceAlpha" type="matrix" values="0 0 0 0 0 0 0 0 0 0 0 0 0 0 0 0 0 0 127 0" result="hardAlpha"/>
<feOffset dy="10"/>
<feGaussianBlur stdDeviation="7.5"/>
<feComposite in2="hardAlpha" operator="out"/>
<feColorMatrix type="matrix" values="0 0 0 0 0 0 0 0 0 0 0 0 0 0 0 0 0 0 0.1 0"/>
<feBlend mode="normal" in2="BackgroundImageFix" result="effect1_dropShadow_13_738"/>
<feBlend mode="normal" in="SourceGraphic" in2="effect1_dropShadow_13_738" result="shape"/>
</filter>
<clipPath id="clip0_13_738">
<rect width="1200" height="1452" fill="white"/>
</clipPath>
</defs>
</svg>
