<svg width="1165" height="350" viewBox="0 0 1165 350" fill="none" xmlns="http://www.w3.org/2000/svg">
<g clip-path="url(#clip0_380_213)">
<rect width="1165" height="350" fill="white"/>
<g clip-path="url(#clip1_380_213)">
<rect width="250" height="150" transform="translate(0 200)" fill="white"/>
<g filter="url(#filter0_b_380_213)">
<rect y="200" width="250" height="150" fill="#15CADB"/>
</g>
<path d="M78.1577 267.067C79.993 270.805 80.4753 275.064 79.5226 279.118C78.5698 283.172 76.2409 286.77 72.9326 289.3C69.6243 291.829 65.5413 293.133 61.3794 292.989C57.2175 292.846 53.2341 291.263 50.108 288.512C46.9819 285.761 44.9064 282.011 44.2353 277.901C43.5642 273.791 44.3389 269.575 46.4274 265.973C48.5159 262.37 51.7891 259.603 55.6892 258.143C59.5892 256.683 63.8749 256.62 67.8159 257.965L66.0077 263.262C63.292 262.334 60.3387 262.378 57.6512 263.384C54.9637 264.39 52.7082 266.297 51.269 268.779C49.8298 271.262 49.296 274.167 49.7584 276.999C50.2209 279.831 51.6511 282.415 53.8053 284.311C55.9595 286.207 58.7044 287.297 61.5723 287.396C64.4403 287.495 67.2538 286.597 69.5336 284.854C71.8133 283.111 73.4182 280.631 74.0747 277.838C74.7313 275.044 74.3989 272.11 73.1342 269.534L78.1577 267.067Z" fill="#F41360"/>
<path d="M108.25 291.5C104.583 291.5 101.433 290.767 98.8 289.3C96.2 287.8 94.2 285.7 92.8 283C91.4 280.267 90.7 277.05 90.7 273.35C90.7 269.65 91.4 266.45 92.8 263.75C94.2 261.05 96.2 258.967 98.8 257.5C101.433 256 104.583 255.25 108.25 255.25C110.617 255.25 112.85 255.617 114.95 256.35C117.083 257.083 118.833 258.133 120.2 259.5L118.1 264.6C116.6 263.333 115.067 262.417 113.5 261.85C111.933 261.25 110.25 260.95 108.45 260.95C104.883 260.95 102.167 262.033 100.3 264.2C98.4333 266.333 97.5 269.383 97.5 273.35C97.5 277.317 98.4333 280.383 100.3 282.55C102.167 284.717 104.883 285.8 108.45 285.8C110.25 285.8 111.933 285.517 113.5 284.95C115.067 284.35 116.6 283.417 118.1 282.15L120.2 287.25C118.833 288.583 117.083 289.633 114.95 290.4C112.85 291.133 110.617 291.5 108.25 291.5ZM132.357 291.5C130.59 291.5 129.007 291.167 127.607 290.5C126.24 289.8 125.157 288.867 124.357 287.7C123.59 286.533 123.207 285.217 123.207 283.75C123.207 281.95 123.673 280.533 124.607 279.5C125.54 278.433 127.057 277.667 129.157 277.2C131.257 276.733 134.073 276.5 137.607 276.5H139.357V275.45C139.357 273.783 138.99 272.583 138.257 271.85C137.523 271.117 136.29 270.75 134.557 270.75C133.19 270.75 131.79 270.967 130.357 271.4C128.923 271.8 127.473 272.433 126.007 273.3L124.207 269.05C125.073 268.45 126.09 267.933 127.257 267.5C128.457 267.033 129.707 266.683 131.007 266.45C132.34 266.183 133.59 266.05 134.757 266.05C138.323 266.05 140.973 266.883 142.707 268.55C144.44 270.183 145.307 272.733 145.307 276.2V291H139.457V287.1C138.89 288.467 137.99 289.55 136.757 290.35C135.523 291.117 134.057 291.5 132.357 291.5ZM133.657 287.2C135.29 287.2 136.64 286.633 137.707 285.5C138.807 284.367 139.357 282.933 139.357 281.2V280.1H137.657C134.523 280.1 132.34 280.35 131.107 280.85C129.907 281.317 129.307 282.183 129.307 283.45C129.307 284.55 129.69 285.45 130.457 286.15C131.223 286.85 132.29 287.2 133.657 287.2ZM160.15 291.5C157.25 291.5 155.1 290.717 153.7 289.15C152.334 287.55 151.65 285.217 151.65 282.15V255.75H157.9V281.85C157.9 284.85 159.167 286.35 161.7 286.35C162.067 286.35 162.434 286.333 162.8 286.3C163.167 286.267 163.517 286.2 163.85 286.1L163.75 291.05C162.55 291.35 161.35 291.5 160.15 291.5ZM167.217 261.3V255.2H174.217V261.3H167.217ZM167.617 291V266.55H173.867V291H167.617ZM180.361 291V266.55H186.461V270.35C187.295 268.95 188.411 267.883 189.811 267.15C191.245 266.417 192.845 266.05 194.611 266.05C200.378 266.05 203.261 269.4 203.261 276.1V291H197.011V276.4C197.011 274.5 196.645 273.117 195.911 272.25C195.211 271.383 194.111 270.95 192.611 270.95C190.778 270.95 189.311 271.533 188.211 272.7C187.145 273.833 186.611 275.35 186.611 277.25V291H180.361Z" fill="#F4F7FB"/>
<circle cx="171" cy="258" r="5" fill="#F41360"/>
<circle cx="62" cy="275" r="8" fill="#F41360"/>
</g>
<g clip-path="url(#clip2_380_213)">
<rect width="250" height="150" transform="translate(915)" fill="white"/>
<g filter="url(#filter1_b_380_213)">
<rect x="915" width="250" height="150" fill="#F41360"/>
</g>
<path d="M993.158 67.0672C994.993 70.8054 995.475 75.0643 994.523 79.1182C993.57 83.1722 991.241 86.7703 987.933 89.2996C984.624 91.8289 980.541 93.1329 976.379 92.9893C972.217 92.8457 968.234 91.2635 965.108 88.5122C961.982 85.7609 959.906 82.0108 959.235 77.9009C958.564 73.7909 959.339 69.5754 961.427 65.9726C963.516 62.3698 966.789 59.6026 970.689 58.1426C974.589 56.6825 978.875 56.6199 982.816 57.9655L981.008 63.2616C978.292 62.3344 975.339 62.3775 972.651 63.3836C969.964 64.3897 967.708 66.2966 966.269 68.7793C964.83 71.2619 964.296 74.1668 964.758 76.999C965.221 79.8311 966.651 82.4153 968.805 84.3112C970.959 86.2071 973.704 87.2974 976.572 87.3963C979.44 87.4953 982.254 86.5967 984.534 84.8538C986.813 83.1109 988.418 80.6314 989.075 77.8378C989.731 75.0443 989.399 72.1095 988.134 69.5336L993.158 67.0672Z" fill="#15CADB"/>
<path d="M1023.25 91.5C1019.58 91.5 1016.43 90.7667 1013.8 89.3C1011.2 87.8 1009.2 85.7 1007.8 83C1006.4 80.2667 1005.7 77.05 1005.7 73.35C1005.7 69.65 1006.4 66.45 1007.8 63.75C1009.2 61.05 1011.2 58.9667 1013.8 57.5C1016.43 56 1019.58 55.25 1023.25 55.25C1025.62 55.25 1027.85 55.6167 1029.95 56.35C1032.08 57.0833 1033.83 58.1333 1035.2 59.5L1033.1 64.6C1031.6 63.3333 1030.07 62.4167 1028.5 61.85C1026.93 61.25 1025.25 60.95 1023.45 60.95C1019.88 60.95 1017.17 62.0333 1015.3 64.2C1013.43 66.3333 1012.5 69.3833 1012.5 73.35C1012.5 77.3167 1013.43 80.3833 1015.3 82.55C1017.17 84.7167 1019.88 85.8 1023.45 85.8C1025.25 85.8 1026.93 85.5167 1028.5 84.95C1030.07 84.35 1031.6 83.4167 1033.1 82.15L1035.2 87.25C1033.83 88.5833 1032.08 89.6333 1029.95 90.4C1027.85 91.1333 1025.62 91.5 1023.25 91.5ZM1047.36 91.5C1045.59 91.5 1044.01 91.1667 1042.61 90.5C1041.24 89.8 1040.16 88.8667 1039.36 87.7C1038.59 86.5333 1038.21 85.2167 1038.21 83.75C1038.21 81.95 1038.67 80.5333 1039.61 79.5C1040.54 78.4333 1042.06 77.6667 1044.16 77.2C1046.26 76.7333 1049.07 76.5 1052.61 76.5H1054.36V75.45C1054.36 73.7833 1053.99 72.5833 1053.26 71.85C1052.52 71.1167 1051.29 70.75 1049.56 70.75C1048.19 70.75 1046.79 70.9667 1045.36 71.4C1043.92 71.8 1042.47 72.4333 1041.01 73.3L1039.21 69.05C1040.07 68.45 1041.09 67.9333 1042.26 67.5C1043.46 67.0333 1044.71 66.6833 1046.01 66.45C1047.34 66.1833 1048.59 66.05 1049.76 66.05C1053.32 66.05 1055.97 66.8833 1057.71 68.55C1059.44 70.1833 1060.31 72.7333 1060.31 76.2V91H1054.46V87.1C1053.89 88.4667 1052.99 89.55 1051.76 90.35C1050.52 91.1167 1049.06 91.5 1047.36 91.5ZM1048.66 87.2C1050.29 87.2 1051.64 86.6333 1052.71 85.5C1053.81 84.3667 1054.36 82.9333 1054.36 81.2V80.1H1052.66C1049.52 80.1 1047.34 80.35 1046.11 80.85C1044.91 81.3167 1044.31 82.1833 1044.31 83.45C1044.31 84.55 1044.69 85.45 1045.46 86.15C1046.22 86.85 1047.29 87.2 1048.66 87.2ZM1075.15 91.5C1072.25 91.5 1070.1 90.7167 1068.7 89.15C1067.33 87.55 1066.65 85.2167 1066.65 82.15V55.75H1072.9V81.85C1072.9 84.85 1074.17 86.35 1076.7 86.35C1077.07 86.35 1077.43 86.3333 1077.8 86.3C1078.17 86.2667 1078.52 86.2 1078.85 86.1L1078.75 91.05C1077.55 91.35 1076.35 91.5 1075.15 91.5ZM1082.22 61.3V55.2H1089.22V61.3H1082.22ZM1082.62 91V66.55H1088.87V91H1082.62ZM1095.36 91V66.55H1101.46V70.35C1102.29 68.95 1103.41 67.8833 1104.81 67.15C1106.24 66.4167 1107.84 66.05 1109.61 66.05C1115.38 66.05 1118.26 69.4 1118.26 76.1V91H1112.01V76.4C1112.01 74.5 1111.64 73.1167 1110.91 72.25C1110.21 71.3833 1109.11 70.95 1107.61 70.95C1105.78 70.95 1104.31 71.5333 1103.21 72.7C1102.14 73.8333 1101.61 75.35 1101.61 77.25V91H1095.36Z" fill="#F4F7FB"/>
<circle cx="1086" cy="58" r="5" fill="#15CADB"/>
<circle cx="977" cy="75" r="8" fill="#15CADB"/>
</g>
<g clip-path="url(#clip3_380_213)">
<rect width="250" height="150" transform="translate(610)" fill="white"/>
<g filter="url(#filter2_b_380_213)">
<rect x="610" width="250" height="150" fill="#FDE014"/>
</g>
<path d="M688.158 67.0672C689.993 70.8054 690.475 75.0643 689.523 79.1182C688.57 83.1722 686.241 86.7703 682.933 89.2996C679.624 91.8289 675.541 93.1329 671.379 92.9893C667.217 92.8457 663.234 91.2635 660.108 88.5122C656.982 85.7609 654.906 82.0108 654.235 77.9009C653.564 73.7909 654.339 69.5754 656.427 65.9726C658.516 62.3698 661.789 59.6026 665.689 58.1426C669.589 56.6825 673.875 56.6199 677.816 57.9655L676.008 63.2616C673.292 62.3344 670.339 62.3775 667.651 63.3836C664.964 64.3897 662.708 66.2966 661.269 68.7793C659.83 71.2619 659.296 74.1668 659.758 76.999C660.221 79.8311 661.651 82.4153 663.805 84.3112C665.959 86.2071 668.704 87.2974 671.572 87.3963C674.44 87.4953 677.254 86.5967 679.534 84.8538C681.813 83.1109 683.418 80.6314 684.075 77.8378C684.731 75.0443 684.399 72.1095 683.134 69.5336L688.158 67.0672Z" fill="#F41360"/>
<path d="M718.25 91.5C714.583 91.5 711.433 90.7667 708.8 89.3C706.2 87.8 704.2 85.7 702.8 83C701.4 80.2667 700.7 77.05 700.7 73.35C700.7 69.65 701.4 66.45 702.8 63.75C704.2 61.05 706.2 58.9667 708.8 57.5C711.433 56 714.583 55.25 718.25 55.25C720.617 55.25 722.85 55.6167 724.95 56.35C727.083 57.0833 728.833 58.1333 730.2 59.5L728.1 64.6C726.6 63.3333 725.067 62.4167 723.5 61.85C721.933 61.25 720.25 60.95 718.45 60.95C714.883 60.95 712.167 62.0333 710.3 64.2C708.433 66.3333 707.5 69.3833 707.5 73.35C707.5 77.3167 708.433 80.3833 710.3 82.55C712.167 84.7167 714.883 85.8 718.45 85.8C720.25 85.8 721.933 85.5167 723.5 84.95C725.067 84.35 726.6 83.4167 728.1 82.15L730.2 87.25C728.833 88.5833 727.083 89.6333 724.95 90.4C722.85 91.1333 720.617 91.5 718.25 91.5ZM742.357 91.5C740.59 91.5 739.007 91.1667 737.607 90.5C736.24 89.8 735.157 88.8667 734.357 87.7C733.59 86.5333 733.207 85.2167 733.207 83.75C733.207 81.95 733.673 80.5333 734.607 79.5C735.54 78.4333 737.057 77.6667 739.157 77.2C741.257 76.7333 744.073 76.5 747.607 76.5H749.357V75.45C749.357 73.7833 748.99 72.5833 748.257 71.85C747.523 71.1167 746.29 70.75 744.557 70.75C743.19 70.75 741.79 70.9667 740.357 71.4C738.923 71.8 737.473 72.4333 736.007 73.3L734.207 69.05C735.073 68.45 736.09 67.9333 737.257 67.5C738.457 67.0333 739.707 66.6833 741.007 66.45C742.34 66.1833 743.59 66.05 744.757 66.05C748.323 66.05 750.973 66.8833 752.707 68.55C754.44 70.1833 755.307 72.7333 755.307 76.2V91H749.457V87.1C748.89 88.4667 747.99 89.55 746.757 90.35C745.523 91.1167 744.057 91.5 742.357 91.5ZM743.657 87.2C745.29 87.2 746.64 86.6333 747.707 85.5C748.807 84.3667 749.357 82.9333 749.357 81.2V80.1H747.657C744.523 80.1 742.34 80.35 741.107 80.85C739.907 81.3167 739.307 82.1833 739.307 83.45C739.307 84.55 739.69 85.45 740.457 86.15C741.223 86.85 742.29 87.2 743.657 87.2ZM770.15 91.5C767.25 91.5 765.1 90.7167 763.7 89.15C762.334 87.55 761.65 85.2167 761.65 82.15V55.75H767.9V81.85C767.9 84.85 769.167 86.35 771.7 86.35C772.067 86.35 772.434 86.3333 772.8 86.3C773.167 86.2667 773.517 86.2 773.85 86.1L773.75 91.05C772.55 91.35 771.35 91.5 770.15 91.5ZM777.217 61.3V55.2H784.217V61.3H777.217ZM777.617 91V66.55H783.867V91H777.617ZM790.361 91V66.55H796.461V70.35C797.295 68.95 798.411 67.8833 799.811 67.15C801.245 66.4167 802.845 66.05 804.611 66.05C810.378 66.05 813.261 69.4 813.261 76.1V91H807.011V76.4C807.011 74.5 806.645 73.1167 805.911 72.25C805.211 71.3833 804.111 70.95 802.611 70.95C800.778 70.95 799.311 71.5333 798.211 72.7C797.145 73.8333 796.611 75.35 796.611 77.25V91H790.361Z" fill="#2C3131"/>
<circle cx="781" cy="58" r="5" fill="#F41360"/>
<circle cx="672" cy="75" r="8" fill="#15CADB"/>
</g>
<rect x="305" width="250" height="150" fill="#F4F7FB"/>
<path d="M383.158 67.0672C384.993 70.8054 385.475 75.0643 384.523 79.1182C383.57 83.1722 381.241 86.7703 377.933 89.2996C374.624 91.8289 370.541 93.1329 366.379 92.9893C362.217 92.8457 358.234 91.2635 355.108 88.5122C351.982 85.7609 349.906 82.0108 349.235 77.9009C348.564 73.7909 349.339 69.5754 351.427 65.9726C353.516 62.3698 356.789 59.6026 360.689 58.1426C364.589 56.6825 368.875 56.6199 372.816 57.9655L371.008 63.2616C368.292 62.3344 365.339 62.3775 362.651 63.3836C359.964 64.3897 357.708 66.2966 356.269 68.7793C354.83 71.2619 354.296 74.1668 354.758 76.999C355.221 79.8311 356.651 82.4153 358.805 84.3112C360.959 86.2071 363.704 87.2974 366.572 87.3963C369.44 87.4953 372.254 86.5967 374.534 84.8538C376.813 83.1109 378.418 80.6314 379.075 77.8378C379.731 75.0443 379.399 72.1095 378.134 69.5336L383.158 67.0672Z" fill="#F41360"/>
<path d="M413.25 91.5C409.583 91.5 406.433 90.7667 403.8 89.3C401.2 87.8 399.2 85.7 397.8 83C396.4 80.2667 395.7 77.05 395.7 73.35C395.7 69.65 396.4 66.45 397.8 63.75C399.2 61.05 401.2 58.9667 403.8 57.5C406.433 56 409.583 55.25 413.25 55.25C415.617 55.25 417.85 55.6167 419.95 56.35C422.083 57.0833 423.833 58.1333 425.2 59.5L423.1 64.6C421.6 63.3333 420.067 62.4167 418.5 61.85C416.933 61.25 415.25 60.95 413.45 60.95C409.883 60.95 407.167 62.0333 405.3 64.2C403.433 66.3333 402.5 69.3833 402.5 73.35C402.5 77.3167 403.433 80.3833 405.3 82.55C407.167 84.7167 409.883 85.8 413.45 85.8C415.25 85.8 416.933 85.5167 418.5 84.95C420.067 84.35 421.6 83.4167 423.1 82.15L425.2 87.25C423.833 88.5833 422.083 89.6333 419.95 90.4C417.85 91.1333 415.617 91.5 413.25 91.5ZM437.357 91.5C435.59 91.5 434.007 91.1667 432.607 90.5C431.24 89.8 430.157 88.8667 429.357 87.7C428.59 86.5333 428.207 85.2167 428.207 83.75C428.207 81.95 428.673 80.5333 429.607 79.5C430.54 78.4333 432.057 77.6667 434.157 77.2C436.257 76.7333 439.073 76.5 442.607 76.5H444.357V75.45C444.357 73.7833 443.99 72.5833 443.257 71.85C442.523 71.1167 441.29 70.75 439.557 70.75C438.19 70.75 436.79 70.9667 435.357 71.4C433.923 71.8 432.473 72.4333 431.007 73.3L429.207 69.05C430.073 68.45 431.09 67.9333 432.257 67.5C433.457 67.0333 434.707 66.6833 436.007 66.45C437.34 66.1833 438.59 66.05 439.757 66.05C443.323 66.05 445.973 66.8833 447.707 68.55C449.44 70.1833 450.307 72.7333 450.307 76.2V91H444.457V87.1C443.89 88.4667 442.99 89.55 441.757 90.35C440.523 91.1167 439.057 91.5 437.357 91.5ZM438.657 87.2C440.29 87.2 441.64 86.6333 442.707 85.5C443.807 84.3667 444.357 82.9333 444.357 81.2V80.1H442.657C439.523 80.1 437.34 80.35 436.107 80.85C434.907 81.3167 434.307 82.1833 434.307 83.45C434.307 84.55 434.69 85.45 435.457 86.15C436.223 86.85 437.29 87.2 438.657 87.2ZM465.15 91.5C462.25 91.5 460.1 90.7167 458.7 89.15C457.334 87.55 456.65 85.2167 456.65 82.15V55.75H462.9V81.85C462.9 84.85 464.167 86.35 466.7 86.35C467.067 86.35 467.434 86.3333 467.8 86.3C468.167 86.2667 468.517 86.2 468.85 86.1L468.75 91.05C467.55 91.35 466.35 91.5 465.15 91.5ZM472.217 61.3V55.2H479.217V61.3H472.217ZM472.617 91V66.55H478.867V91H472.617ZM485.361 91V66.55H491.461V70.35C492.295 68.95 493.411 67.8833 494.811 67.15C496.245 66.4167 497.845 66.05 499.611 66.05C505.378 66.05 508.261 69.4 508.261 76.1V91H502.011V76.4C502.011 74.5 501.645 73.1167 500.911 72.25C500.211 71.3833 499.111 70.95 497.611 70.95C495.778 70.95 494.311 71.5333 493.211 72.7C492.145 73.8333 491.611 75.35 491.611 77.25V91H485.361Z" fill="#2C3131"/>
<circle cx="476" cy="58" r="5" fill="#F41360"/>
<circle cx="367" cy="75" r="8" fill="#15CADB"/>
<rect width="250" height="150" fill="#2C3131"/>
<path d="M78.1577 67.0672C79.993 70.8054 80.4753 75.0643 79.5226 79.1182C78.5698 83.1722 76.2409 86.7703 72.9326 89.2996C69.6243 91.8289 65.5413 93.1329 61.3794 92.9893C57.2175 92.8457 53.2341 91.2635 50.108 88.5122C46.9819 85.7609 44.9064 82.0108 44.2353 77.9009C43.5642 73.7909 44.3389 69.5754 46.4274 65.9726C48.5159 62.3698 51.7891 59.6026 55.6892 58.1426C59.5892 56.6825 63.8749 56.6199 67.8159 57.9655L66.0077 63.2616C63.292 62.3344 60.3387 62.3775 57.6512 63.3836C54.9637 64.3897 52.7082 66.2966 51.269 68.7793C49.8298 71.2619 49.296 74.1668 49.7584 76.999C50.2209 79.8311 51.6511 82.4153 53.8053 84.3112C55.9595 86.2071 58.7044 87.2974 61.5723 87.3963C64.4403 87.4953 67.2538 86.5967 69.5336 84.8538C71.8133 83.1109 73.4182 80.6314 74.0747 77.8378C74.7313 75.0443 74.3989 72.1095 73.1342 69.5336L78.1577 67.0672Z" fill="#F41360"/>
<path d="M108.25 91.5C104.583 91.5 101.433 90.7667 98.8 89.3C96.2 87.8 94.2 85.7 92.8 83C91.4 80.2667 90.7 77.05 90.7 73.35C90.7 69.65 91.4 66.45 92.8 63.75C94.2 61.05 96.2 58.9667 98.8 57.5C101.433 56 104.583 55.25 108.25 55.25C110.617 55.25 112.85 55.6167 114.95 56.35C117.083 57.0833 118.833 58.1333 120.2 59.5L118.1 64.6C116.6 63.3333 115.067 62.4167 113.5 61.85C111.933 61.25 110.25 60.95 108.45 60.95C104.883 60.95 102.167 62.0333 100.3 64.2C98.4333 66.3333 97.5 69.3833 97.5 73.35C97.5 77.3167 98.4333 80.3833 100.3 82.55C102.167 84.7167 104.883 85.8 108.45 85.8C110.25 85.8 111.933 85.5167 113.5 84.95C115.067 84.35 116.6 83.4167 118.1 82.15L120.2 87.25C118.833 88.5833 117.083 89.6333 114.95 90.4C112.85 91.1333 110.617 91.5 108.25 91.5ZM132.357 91.5C130.59 91.5 129.007 91.1667 127.607 90.5C126.24 89.8 125.157 88.8667 124.357 87.7C123.59 86.5333 123.207 85.2167 123.207 83.75C123.207 81.95 123.673 80.5333 124.607 79.5C125.54 78.4333 127.057 77.6667 129.157 77.2C131.257 76.7333 134.073 76.5 137.607 76.5H139.357V75.45C139.357 73.7833 138.99 72.5833 138.257 71.85C137.523 71.1167 136.29 70.75 134.557 70.75C133.19 70.75 131.79 70.9667 130.357 71.4C128.923 71.8 127.473 72.4333 126.007 73.3L124.207 69.05C125.073 68.45 126.09 67.9333 127.257 67.5C128.457 67.0333 129.707 66.6833 131.007 66.45C132.34 66.1833 133.59 66.05 134.757 66.05C138.323 66.05 140.973 66.8833 142.707 68.55C144.44 70.1833 145.307 72.7333 145.307 76.2V91H139.457V87.1C138.89 88.4667 137.99 89.55 136.757 90.35C135.523 91.1167 134.057 91.5 132.357 91.5ZM133.657 87.2C135.29 87.2 136.64 86.6333 137.707 85.5C138.807 84.3667 139.357 82.9333 139.357 81.2V80.1H137.657C134.523 80.1 132.34 80.35 131.107 80.85C129.907 81.3167 129.307 82.1833 129.307 83.45C129.307 84.55 129.69 85.45 130.457 86.15C131.223 86.85 132.29 87.2 133.657 87.2ZM160.15 91.5C157.25 91.5 155.1 90.7167 153.7 89.15C152.334 87.55 151.65 85.2167 151.65 82.15V55.75H157.9V81.85C157.9 84.85 159.167 86.35 161.7 86.35C162.067 86.35 162.434 86.3333 162.8 86.3C163.167 86.2667 163.517 86.2 163.85 86.1L163.75 91.05C162.55 91.35 161.35 91.5 160.15 91.5ZM167.217 61.3V55.2H174.217V61.3H167.217ZM167.617 91V66.55H173.867V91H167.617ZM180.361 91V66.55H186.461V70.35C187.295 68.95 188.411 67.8833 189.811 67.15C191.245 66.4167 192.845 66.05 194.611 66.05C200.378 66.05 203.261 69.4 203.261 76.1V91H197.011V76.4C197.011 74.5 196.645 73.1167 195.911 72.25C195.211 71.3833 194.111 70.95 192.611 70.95C190.778 70.95 189.311 71.5333 188.211 72.7C187.145 73.8333 186.611 75.35 186.611 77.25V91H180.361Z" fill="#F4F7FB"/>
<circle cx="171" cy="58" r="5" fill="#F41360"/>
<circle cx="62" cy="75" r="8" fill="#15CADB"/>
</g>
<defs>
<filter id="filter0_b_380_213" x="-10" y="190" width="270" height="170" filterUnits="userSpaceOnUse" color-interpolation-filters="sRGB">
<feFlood flood-opacity="0" result="BackgroundImageFix"/>
<feGaussianBlur in="BackgroundImageFix" stdDeviation="5"/>
<feComposite in2="SourceAlpha" operator="in" result="effect1_backgroundBlur_380_213"/>
<feBlend mode="normal" in="SourceGraphic" in2="effect1_backgroundBlur_380_213" result="shape"/>
</filter>
<filter id="filter1_b_380_213" x="905" y="-10" width="270" height="170" filterUnits="userSpaceOnUse" color-interpolation-filters="sRGB">
<feFlood flood-opacity="0" result="BackgroundImageFix"/>
<feGaussianBlur in="BackgroundImageFix" stdDeviation="5"/>
<feComposite in2="SourceAlpha" operator="in" result="effect1_backgroundBlur_380_213"/>
<feBlend mode="normal" in="SourceGraphic" in2="effect1_backgroundBlur_380_213" result="shape"/>
</filter>
<filter id="filter2_b_380_213" x="600" y="-10" width="270" height="170" filterUnits="userSpaceOnUse" color-interpolation-filters="sRGB">
<feFlood flood-opacity="0" result="BackgroundImageFix"/>
<feGaussianBlur in="BackgroundImageFix" stdDeviation="5"/>
<feComposite in2="SourceAlpha" operator="in" result="effect1_backgroundBlur_380_213"/>
<feBlend mode="normal" in="SourceGraphic" in2="effect1_backgroundBlur_380_213" result="shape"/>
</filter>
<clipPath id="clip0_380_213">
<rect width="1165" height="350" fill="white"/>
</clipPath>
<clipPath id="clip1_380_213">
<rect width="250" height="150" fill="white" transform="translate(0 200)"/>
</clipPath>
<clipPath id="clip2_380_213">
<rect width="250" height="150" fill="white" transform="translate(915)"/>
</clipPath>
<clipPath id="clip3_380_213">
<rect width="250" height="150" fill="white" transform="translate(610)"/>
</clipPath>
</defs>
</svg>
